<svg viewBox="0 0 1024 1024" xmlns="http://www.w3.org/2000/svg"><path d="M181 492q-13 0-22.5 9t-9.5 23q0 13 9.5 22.5T181 556v-64zm640 64q14 0 23-9.5t9-22.5q0-14-9-23t-23-9v64zm-640 0h640v-64H181v64zm243 253q12 6 24.5 2.5T468 796q6-12 2-24.5T455 753l-31 56zm31-514q11-6 15-19t-2-25q-7-11-19.5-15t-24.5 2l31 57zm-16 486l14-24.5 2-3.5-1-1h-.5q-.5 0-1.5-1t-3-2q-2-1-5-2-5-3-12-7.5t-16-9.5q-18-11-40.5-26T330 671q-24-18-45.5-37.5T246 593q-16-20-24.5-37.5T213 524h-64q0 30 14.5 58t33.5 52q20 24 44.5 46.5T291 722q25 19 49 35t42 27l17.5 10.5Q407 799 413 802q2 2 4.5 3t3.5 2q1 1 1.5 1h.5l1 1 2-3.5q2-3.5 13-24.5zM213 524q0-14 8.5-31.5T246 454q17-20 38.5-40t45.5-38q23-18 45.5-33t40.5-25q9-6 16-10t12-7q3-2 5-3t3-2q1 0 1.5-.5l.5-.5h1l-2-3.5q-2-3.5-13-24.5-12-21-14-25l-2-4v1h-1l-.5.5q-.5.5-1.5.5-1 1-3.5 2.5T413 245q-6 3-13.5 7.5L382 263q-18 11-42 27t-49 36q-25 19-49.5 41T197 414q-19 23-33.5 51T149 524h64z"/></svg>