<svg viewBox="0 0 1024 1024" xmlns="http://www.w3.org/2000/svg"><path d="M227 259q-40 39-59 107.5T149 545q0 110 19 178.5T227 832q39 39 107.5 58T513 909q110 0 178.5-19T800 832q39-40 58-108.5T877 545q0-110-19-178.5T800 259q-40-40-108.5-59T513 181q-110 0-178.5 19T227 259zm-46-46q27-26 61-45 34-18 75.5-29.5T408 122q49-5 105-5t105 5q49 5 90.5 16.5T784 168q34 19 61 45 27 27 45 61t29.5 75.5Q931 391 936 440t5 105q0 56-5 105t-16.5 90.5Q908 782 890 816t-45 61q-27 27-61 45t-75.5 29.5Q667 963 618 968t-105 5q-56 0-105-5t-90.5-16.5Q276 940 242 922t-61-45q-26-27-45-61-18-34-29.5-75.5T90 650q-5-49-5-105t5-105q5-49 16.5-90.5T136 274q19-34 45-61zM97 398q0-13 9.5-22.5T129 366h769q13 0 22.5 9.5T930 398q0 13-9.5 22.5T898 430H129q-13 0-22.5-9.5T97 398zm572 168q0-13 9.5-22.5T701 534q14 0 23 9.5t9 22.5q0 13-9 22.5t-23 9.5q-13 0-22.5-9.5T669 566zm-188 0q0-13 9.5-22.5T513 534h1q13 0 22.5 9.5T546 566q0 13-9.5 22.5T514 598h-1q-13 0-22.5-9.5T481 566zm-188 0q0-13 9.5-22.5T325 534h1q13 0 22.5 9.5T358 566q0 13-9.5 22.5T326 598h-1q-13 0-22.5-9.5T293 566zm376 164q0-13 9.5-22.5T701 698q14 0 23 9.5t9 22.5q0 13-9 22.5t-23 9.5q-13 0-22.5-9.5T669 730zm-188 0q0-13 9.5-22.5T513 698h1q13 0 22.5 9.5T546 730q0 13-9.5 22.5T514 762h-1q-13 0-22.5-9.5T481 730zm-188 0q0-13 9.5-22.5T325 698h1q13 0 22.5 9.5T358 730q0 13-9.5 22.5T326 762h-1q-13 0-22.5-9.5T293 730zM684 55q13 0 22.5 9.5T716 87v140q0 13-9.5 22.5T684 259q-13 0-22.5-9.5T652 227V87q0-13 9.5-22.5T684 55zm-342 0q14 0 23 9.5t9 22.5v140q0 13-9 22.5t-23 9.5q-13 0-22.5-9.5T310 227V87q0-13 9.5-22.5T342 55z"/></svg>