<svg viewBox="0 0 1024 1024" xmlns="http://www.w3.org/2000/svg"><path d="M379 186q-11-7-24-3.5T335 197q-7 11-3.5 24t14.5 20l33-55zm-33 597q-11 7-14.5 20t3.5 24q7 11 20 14.5t24-3.5l-33-55zm17-570q-13 21-15 24.5l-2 3.5h1q0 1 1 1t1 1q2 1 4.5 2t5.5 3q6 4 14 9.5t19 12.5q20 13 46.5 31.5T492 342q27 22 53 45.5t45 46.5q20 25 29.5 44.5T629 512h64q0-32-16-62t-38-57q-22-27-50-52.5T532 292q-29-23-56.5-42.5T427 216q-11-7-19.5-12.5T392 194q-3-2-5.5-3.5T383 188q-1-1-2-1t-1-1h-1l-2 3.5q-2 3.5-14 23.5zm266 299q0 14-9.5 33.5T590 590q-19 23-45 46.5T492 682q-27 22-53.5 40.5T392 754q-11 7-19 12.5t-14 9.5q-3 1-5.5 2.5T349 781q0 1-1 1t-1 1h-1l2 3.5q2 3.5 15 24.5 12 20 14 23.5l2 3.5h1q0-1 1-1t2-1q1-1 3.5-2.5t5.5-3.5q7-4 15.5-9.5T427 808q21-14 48.5-33.5T532 732q29-23 57-48.5t50-52.5q22-27 38-57t16-62h-64z"/></svg>