<svg viewBox="0 0 1024 1024" xmlns="http://www.w3.org/2000/svg"><path d="M387 530q0-18-12.5-30.5T344 487h-1q-17 0-29.5 12.5T301 530q0 17 12.5 29.5T343 572h1q18 0 30.5-12.5T387 530zm171 0q0-18-12.5-30.5T515 487q-18 0-30.5 12.5T472 530q0 17 12.5 29.5T515 572q18 0 30.5-12.5T558 530zm171 0q0-18-12.5-30.5T686 487q-18 0-30.5 12.5T643 530q0 17 12.5 29.5T686 572q18 0 30.5-12.5T729 530zM233 233q-58 58-87 130-29 73-29 149t29 149q29 72 87 130 45 45 100 73 55 27 113.5 37t117.5 2q60-8 114-33h1l1-1q7-2 14.5-2.5t12.5-.5q6 0 12.5.5T733 868l14 2 14 2h2l16 2 16 2q17 2 32 3t28 0q6 0 10.5-.5t7.5-1.5q1 0 2-.5l1-.5.5-1q.5-1 .5-2 1-3 1.5-7.5t.5-10.5q1-13 0-28t-3-32l-2-16-2-16v-2l-2-14-2-14q-1-7-1.5-13.5T866 707q0-5 .5-12.5T869 680l1-1v-1q26-55 33-114 8-60-2-118.5T864 333q-28-55-73-100-58-58-130-87-73-29-149-29t-149 29q-72 29-130 87zm-45-45q67-68 151-101 85-34 173-34t173 34q84 33 151 101H188zm648 0q53 52 84 115 32 63 44 130.5t3 136.5q-9 68-37 132v3q0 4 .5 9t1.5 12q0 6 1 12.5t2 14.5v2q1 8 2.5 16t2.5 17q2 17 3 35t0 34q0 9-1 17t-3 16q-2 8-6 16t-12 15q-7 8-15 12t-16 6q-8 2-16 3t-17 1q-16 1-34 0t-35-3q-9-1-17-2.5t-16-2.5h-2q-8-1-14.5-2t-12.5-1q-7-1-12-1.5t-9-.5h-3q-64 28-132 37-69 9-136.5-3T303 920q-63-31-115-84-67-67-101-151-34-85-34-173t34-173q33-84 101-151h648z"/></svg>