<svg viewBox="0 0 1024 1024" xmlns="http://www.w3.org/2000/svg"><path d="M665 702q14 0 23-9.5t9-22.5q0-14-9-23t-23-9v64zm-308-64q-13 0-22.5 9t-9.5 23q0 13 9.5 22.5T357 702v-64zm308 0H357v64h308v-64zm0-97q14 0 23-9t9-23q0-13-9-22.5t-23-9.5v64zm-308-64q-13 0-22.5 9.5T325 509q0 14 9.5 23t22.5 9v-64zm308 0H357v64h308v-64zm-190-96q13 0 22.5-9.5T507 349q0-13-9.5-22.5T475 317v64zm-118-64q-13 0-22.5 9.5T325 349q0 13 9.5 22.5T357 381v-64zm118 0H357v64h118v-64zM122 512q0 56 4 105 5 48 15 89t27 75q16 34 41 61 49 54 125 75.5T512 939v-64q-99 0-160-19t-96-57q-36-39-53-108t-17-179h-64zm390 427q103 0 178.5-21.5T815 842q25-27 41-61 17-34 27-75t15-89q4-49 4-105h-64q0 110-17 179t-53 108q-35 38-96 57t-160 19v64zm390-427q0-56-4-104-5-49-15-90t-27-75q-16-34-41-61-49-54-124.5-75.5T512 85v64q99 0 160 19t96 57q36 39 53 108t17 179h64zM512 85q-102 0-178 21.5T209 182q-25 27-41 61-17 34-27 75t-15 90q-4 48-4 104h64q0-110 17-179t53-108q35-38 96-57t160-19V85z"/></svg>