<svg viewBox="0 0 1024 1024" xmlns="http://www.w3.org/2000/svg"><path d="M507 85q13 0 22.5 9.5T539 117v514q0 13-9.5 22.5T507 663q-13 0-22.5-9.5T475 631V117q0-13 9.5-22.5T507 85zM360 484q9-10 22.5-10t22.5 10l102 102 101-102q10-10 23-10t23 10q9 9 9 22t-9 23L529 654q-4 4-10 6.5t-12 2.5q-7 0-12.5-2.5T484 654L360 529q-10-10-10-23t10-22zm307-177q1-13 11-21.5t23-7.5q60 5 107 22.5t78 59.5q29 40 41 101.5T939 608q0 114-22 185.5T837 901q-28 17-62 25.5T702 938q-40 4-87 4.5t-102 .5h-2q-55 0-102-.5t-87-4.5q-39-3-73-11.5T187 901q-58-36-80-107.5T85 608q0-85 12-146.5T138 360q31-42 78-59.5T323 278q13-1 23 7.5t11 21.5q2 13-6.5 23T328 342q-55 5-87.5 18T190 398q-20 27-30.5 76T149 608q0 114 18.5 165.5T220 846q19 11 45 18t63 11q37 3 82.5 3.5t101.5.5q56 0 101.5-.5T696 875q36-4 62.5-11t45.5-18q34-21 52.5-72.5T875 608q0-85-10.5-134T834 398q-18-25-50.5-38T696 342q-14-2-22.5-12t-6.5-23z"/></svg>