<svg viewBox="0 0 1024 1024" xmlns="http://www.w3.org/2000/svg"><path d="M537 832q0-13 9.5-22.5T569 800h272q13 0 22.5 9.5T873 832q0 14-9.5 23t-22.5 9H569q-13 0-22.5-9t-9.5-23zm-59-618q40-54 106.5-63T704 182q54 40 63.5 106.5T737 408l-52-38q25-33 19-73t-38-64q-32-24-72.5-18.5T529 252L241 636q-22 30-26 62t2 61q3 14 6.5 26t7.5 20q1 2 1 3t1 2h4q10 1 22.5 1.5T287 810q29-3 58.5-15t51.5-41q14-19 34-45 19-26 42-56.5t48-63.5l48-64 116-155 52 38-117 156q-24 31-48 64-25 32-47.5 62.5T482 748q-20 26-34 44-33 44-76 61t-79 21q-19 2-34.5 1.5T231 874q-6-1-11-1.5t-8-1.5q-2 0-3-.5t-2-.5h-3l1-4q1-4 6-28-20 12-23.5 14l-3.5 2h-1l-1-2q0-1-.5-2l-1.5-3q-2-3-4-7t-4-10q-5-11-9.5-26t-8.5-33q-7-36-2.5-82.5T190 598l288-384zM211 838l-27 16q3 6 8.5 10t11.5 6l7-32zm212-550q8-10 21-12t23 6l208 156q11 8 12.5 21t-6.5 24q-8 10-21 12t-24-6L429 333q-11-8-12.5-21t6.5-24z"/></svg>