<svg viewBox="0 0 1024 1024" xmlns="http://www.w3.org/2000/svg"><path d="M637 387q9 9 9 22.5t-9 22.5L432 636q-9 10-22.5 10T387 636q-9-9-9-22t9-23l204-204q10-10 23-10t23 10zm-250 0q9-10 22.5-10t22.5 10l205 204q9 10 9 23t-9 23q-9 9-22.5 9t-22.5-9L387 432q-9-9-9-22.5t9-22.5zM181 181q27-27 61-45t75-29.5Q358 95 407 90t105-5q56 0 105 5t90 16.5q41 11.5 75 29.5t61 45q27 27 45 61t29.5 75q11.5 41 16.5 90t5 105q0 56-5 105t-16.5 90Q906 748 888 782t-45 61q-27 27-61 45t-75 29.5Q666 929 617 934t-105 5q-56 0-105-5t-90-16.5Q276 906 242 888t-61-45q-27-27-45-61t-29.5-75Q95 666 90 617t-5-105q0-56 5-105t16.5-90q11.5-41 29.5-75t45-61zm45 45q-39 39-58 107.5T149 512q0 110 19 178.5T226 798q39 39 107.5 58T512 875q110 0 178.5-19T798 798q39-39 58-107.5T875 512q0-110-19-178.5T798 226q-39-39-107.5-58T512 149q-110 0-178.5 19T226 226z"/></svg>