<svg viewBox="0 0 1024 1024" xmlns="http://www.w3.org/2000/svg"><path d="M739 160q-51 0-88 36.5T614 285q0 51 37 87.5t88 36.5q52 0 88.5-36.5T864 285q0-52-36.5-88.5T739 160zM550 285q0-78 55.5-133.5T739 96q78 0 133.5 55.5T928 285q0 78-55.5 133T739 473q-78 0-133.5-55T550 285zM285 160q-52 0-88.5 36.5T160 285q0 51 36.5 87.5T285 409q51 0 87.5-36.5T409 285q0-52-36.5-88.5T285 160zM96 285q0-78 55.5-133.5T285 96q78 0 133 55.5T473 285q0 78-55 133t-133 55q-78 0-133.5-55T96 285zm643 327q-51 0-88 36.5T614 737q0 51 37 87.5t88 36.5q52 0 88.5-36.5T864 737q0-52-36.5-88.5T739 612zM550 737q0-79 55.5-134T739 548q78 0 133.5 55T928 737q0 78-55.5 133T739 925q-78 0-133.5-55T550 737zM285 612q-52 0-88.5 36.5T160 737q0 51 36.5 87.5T285 861q51 0 87.5-36.5T409 737q0-52-36.5-88.5T285 612zM96 737q0-79 55.5-134T285 548q78 0 133 55t55 134q0 78-55 133t-133 55q-78 0-133.5-55T96 737z"/></svg>