<svg viewBox="0 0 1024 1024" xmlns="http://www.w3.org/2000/svg"><path d="M355 688q0-13 9.5-22.5T387 656h248q14 0 23 9.5t9 22.5q0 14-9 23t-23 9H387q-13 0-22.5-9t-9.5-23zm-65-433q-13 12-24.5 22.5T243 298l-2.5 2.5Q239 302 237 303q-9 8-16.5 15T206 331q-17 15-27.5 27T161 383q-15 25-21 68t-6 134q0 66 4.5 114t12.5 82q9 34 22 54.5t30 32.5q18 13 45 21t65 12q39 4 88 5t110 1q62 0 111-1t87-5q39-4 65.5-12t44.5-21q17-12 30-32.5t22-54.5q9-34 13-82t4-114q0-91-6-134t-20-68q-7-13-18-25t-27-27q-7-6-15-13t-17-15l-2.5-2.5-2.5-2.5q-11-10-23-20.5T732 255q-8-6-16-13l-16-14q-18-15-38-31.5T621 165q-32-22-60-35t-51-13q-23 0-50.5 13T401 165q-21 15-39.5 30.5T325 226q-9 7-17.5 14.5T290 255zm73-142q32-23 70-41.5T510 53q39 0 77 18.5t71 41.5q23 16 45 34.5t41 34.5q8 6 15.5 12.5T773 206q1 0 1.5.5l.5.5q13 12 24.5 22.5T822 250l2.5 2.5q1.5 1.5 3.5 2.5 9 8 17 15t15 14q18 16 32 32t25 35q22 38 28.5 91.5T952 585q0 67-4 119.5T933 798q-10 41-29 71.5T857 920q-29 21-64.5 31T716 965q-42 4-92.5 5T513 971h-3q-60 0-111-1t-92-5q-42-4-77.5-14T166 920q-29-20-47.5-50.5T90 798q-11-41-15.5-93.5T70 585q0-89 7-142.5t28-91.5q11-19 25.5-35t31.5-32l16-14q8-7 17-15l2.5-2.5q1.5-1.5 3.5-2.5 10-10 22-20.5t25-22.5l.5-.5.5-.5q7-6 15-12.5t17-13.5q18-16 39-33.5t43-33.5z"/></svg>