<svg viewBox="0 0 1024 1024" xmlns="http://www.w3.org/2000/svg"><path d="M374 457q0-57 40.5-98t97.5-41q58 0 98.5 41t40.5 98q0 57-40.5 98T512 596q-57 0-97.5-41T374 457zm138-75q-30 0-52 22t-22 53q0 31 22 53t52 22q31 0 53-22t22-53q0-31-22-53t-53-22zm0-222q-60 0-112 23t-91.5 62.5Q269 285 247 338q-23 54-23 114 0 40 8 79t22.5 75.5Q269 643 288 677q20 34 43 63t47.5 52.5Q403 816 428 832q24 17 45.5 24.5T512 864q17 0 38.5-7.5T596 832q25-16 49.5-39.5T693 740q23-29 43-63 19-34 33.5-70.5T792 531q8-39 8-79 0-60-23-114-22-53-61.5-92.5T624 183q-53-23-112-23zM160 452q0-73 28-138 27-65 75-113.5T375 124q64-28 137-28t137 28q64 28 112 76.5T836 314q28 65 28 138 0 46-9 91-10 45-26 86.5T791 709q-22 38-47 71-26 32-54.5 59T632 885q-29 20-59.5 31.5T512 928q-30 0-60.5-11.5T392 885q-29-19-57.5-46T280 780q-25-33-47-71t-38-79.5Q179 588 169 543q-9-45-9-91z"/></svg>