<svg viewBox="0 0 1024 1024" xmlns="http://www.w3.org/2000/svg"><path d="M930 549q13 0 22.5-9.5T962 517q0-13-9.5-22.5T930 485v64zm-514-64q-13 0-22.5 9.5T384 517q0 13 9.5 22.5T416 549v-64zm514 0H416v64h514v-64zM827 370q-9-9-22-9t-23 9q-9 10-9 23t9 22l45-45zm103 147l22 23q5-5 7.5-10.5T962 517q0-6-2.5-12t-7.5-11l-22 23zM782 619q-9 9-9 22.5t9 22.5q10 10 23 10t22-10l-45-45zm0-204l125 125 45-46-125-124-45 45zm125 79L782 619l45 45 125-124-45-46zM730 323q1 13-7.5 23T701 357q-13 2-23.5-6.5T666 328l64-5zm-64 373q1-14 11.5-22.5T701 667q13 1 21.5 11t7.5 23l-64-5zm0-368q-5-55-18.5-87.5T610 190q-27-20-76.5-30.5T399 149V85q86 0 147.5 12T648 138q42 31 59 78t23 107l-64 5zM399 149q-113 0-165 18.5T161 220q-11 19-18 45t-10 63q-3 37-4 82.5T128 512H64q0-55 1-102.5t4-87.5q4-39 12.5-73t25.5-62q36-58 107.5-80T399 85v64zM128 512q0 56 1 101.5t4 82.5q3 37 10 63t18 45q21 34 73 52.5T399 875v64q-113 0-184.5-22T107 837q-17-28-25.5-62T69 702q-3-40-4-87.5T64 512h64zm271 363q85 0 134.5-10.5T610 834q24-18 37.5-50.5T666 696l64 5q-6 60-23 107t-59 78q-40 29-101.5 41T399 939v-64z"/></svg>