<svg viewBox="0 0 1024 1024" xmlns="http://www.w3.org/2000/svg"><path d="M128 160q-13 0-22.5 9.5T96 192q0 13 9.5 22.5T128 224v-64zm768 64q13 0 22.5-9.5T928 192q0-13-9.5-22.5T896 160v64zm-768 0h768v-64H128v64zm364 149q-13 0-22.5 9.5T460 405q0 14 9.5 23t22.5 9v-64zm404 64q13 0 22.5-9t9.5-23q0-13-9.5-22.5T896 373v64zm-404 0h404v-64H492v64zM128 587q-13 0-22.5 9T96 619q0 13 9.5 22.5T128 651v-64zm768 64q13 0 22.5-9.5T928 619q0-14-9.5-23t-22.5-9v64zm-768 0h768v-64H128v64zm364 149q-13 0-22.5 9.5T460 832q0 13 9.5 22.5T492 864v-64zm404 64q13 0 22.5-9.5T928 832q0-13-9.5-22.5T896 800v64zm-404 0h404v-64H492v64z"/></svg>