<svg viewBox="0 0 1024 1024" xmlns="http://www.w3.org/2000/svg"><path d="M226 226q-39 39-58 107.5T149 512q0 110 19 178.5T226 798q39 39 107.5 58T512 875q110 0 178.5-19T798 798q39-39 58-107.5T875 512q0-110-19-178.5T798 226q-39-39-107.5-58T512 149q-110 0-178.5 19T226 226zm-45-45q27-27 61-45t75-29.5Q358 95 407 90t105-5q56 0 105 5t90 16.5q41 11.5 75 29.5t61 45q27 27 45 61t29.5 75q11.5 41 16.5 90t5 105q0 56-5 105t-16.5 90Q906 748 888 782t-45 61q-27 27-61 45t-75 29.5Q666 929 617 934t-105 5q-56 0-105-5t-90-16.5Q276 906 242 888t-61-45q-27-27-45-61t-29.5-75Q95 666 90 617t-5-105q0-56 5-105t16.5-90q11.5-41 29.5-75t45-61zm459 331q0-18 12.5-30.5T682 469h1q17 0 29.5 12.5T725 512q0 18-12.5 30.5T683 555h-1q-17 0-29.5-12.5T640 512zm-171 0q0-18 12.5-30.5T512 469q18 0 30.5 12.5T555 512q0 18-12.5 30.5T512 555q-18 0-30.5-12.5T469 512zm-170 0q0-18 12-30.5t30-12.5h1q17 0 29.5 12.5T384 512q0 18-12.5 30.5T342 555h-1q-18 0-30-12.5T299 512z"/></svg>