<svg viewBox="0 0 1024 1024" xmlns="http://www.w3.org/2000/svg"><path d="M512 437q31 0 53 22t22 53h64q0-57-41-98t-98-41v64zm75 75q0 31-22 53t-53 22v64q57 0 98-41t41-98h-64zm-75 75q-31 0-53-22t-22-53h-64q0 57 41 98t98 41v-64zm-75-75q0-31 22-53t53-22v-64q-57 0-98 41t-41 98h64zm279-242l16 28-16-28zM512 75q-13 0-22.5 9t-9.5 23q0 13 9.5 22.5T512 139V75zM202 455l16-28-16 28zm0 114l16 28-16-28zm106 185v-32q-5 0-9 1t-7 3l16 28zm0 0v32q4 0 8-1.5t8-3.5l-16-27zm408 0l-16 27 16-27zm106-185l16-27q-4-2-8-3.5t-8-1.5v32zm0 0l-16 28q3 2 7.5 3t8.5 1v-32zm0-114l-16-28 16 28zm66-162q-28-49-83-64t-105 14l32 55q27-15 56-7t45 34l55-32zm-188-50q-16 9-33-.5T650 213h-64q0 56 48.5 85t97.5 0l-32-55zm-50-30q0-57-40.5-97.5T512 75v64q30 0 52 21.5t22 52.5h64zM512 75q-57 0-97.5 40.5T374 213h64q0-31 22-52.5t52-21.5V75zM374 213q0 20-17 29.5t-33 .5l-32 55q49 29 97.5 0t48.5-85h-64zm-50 30q-50-29-105-14t-83 64l55 32q16-26 45-34t56 7l32-55zm-188 50q-29 50-14 105.5t64 83.5l32-55q-26-15-34-45t7-57l-55-32zm50 189q17 10 17 30t-17 30l32 55q49-28 49-85t-49-85l-32 55zm0 60q-49 28-64 83.5T136 731l55-32q-15-27-7-57t34-45l-32-55zm-50 189q28 49 83 64t105-14l-32-55q-27 15-56 7t-45-34l-55 32zm172 55v-64 64zm16-5q16-9 33 .5t17 29.5h64q0-56-48.5-85t-97.5 0l32 55zm50 30q0 57 40.5 97.5T512 949v-64q-30 0-52-21.5T438 811h-64zm138 138q57 0 97.5-40.5T650 811h-64q0 31-22 52.5T512 885v64zm138-138q0-20 17-29.5t33-.5l32-55q-49-29-97.5 0T586 811h64zm50-30q50 29 105 14t83-64l-55-32q-16 26-45 34t-56-7l-32 55zm188-50q29-50 14-105.5T838 542l-32 55q26 15 34 45t-7 57l55 32zm-66-194v64-64zm16 5q-17-10-17-30t17-30l-32-55q-49 28-49 85t49 85l32-55zm0-60q49-28 64-83.5T888 293l-55 32q15 27 7 57t-34 45l32 55z"/></svg>