<svg viewBox="0 0 1024 1024" xmlns="http://www.w3.org/2000/svg"><path d="M318 697q-37 24-55 51.5T245 802q0 12 4 21.5t11 16.5q8 8 20.5 15.5T311 869q36 13 86 18t108 5q59 0 109-5t86-18q18-6 30.5-13.5T751 840q7-8 10.5-17.5T765 801q0-26-18-53.5T693 697q-36-24-84.5-38T505 645q-55 0-103.5 14.5T318 697zm-36-53q44-29 102-46t121-17q64 0 121.5 16.5T728 643q43 28 72 68.5t29 89.5q0 24-8 45t-23 37q-15 16-35 27.5T721 929q-44 16-100 21.5T505 956q-59 0-115-5.5T290 930q-22-8-42-19t-35-27q-15-16-23.5-37t-8.5-45q0-49 29-89.5t72-68.5zm4-354q0-46 17-86t47-69.5Q380 105 420 88q40-18 85-18t85 18q40 17 70 46.5t47 69.5q17 40 17 86 0 45-17 85t-47 69.5Q630 474 590 492q-40 17-85 17h-1q-46 0-85-18-40-17-69.5-47T303 375q-17-40-17-85zm0 0v-.5-.5l32 1h-32zm219-156q-64 0-109.5 45.5T350 290q0 64 45 109.5T504 445h1q64 0 109.5-45.5T660 290q0-65-45.5-110.5T505 134z"/></svg>