<svg viewBox="0 0 1024 1024" xmlns="http://www.w3.org/2000/svg"><path d="M738 439q-33 0-55.5 23T660 517q0 32 22.5 54.5T738 594h165q14 0 23 9.5t9 22.5q0 13-9 22.5t-23 9.5H738q-59 0-100.5-41.5T596 517q0-59 41.5-100.5T738 375h164q13 0 22.5 9.5T934 407q0 14-9.5 23t-22.5 9H738zm-26 75q0-13 9-22.5t23-9.5h12q13 0 22.5 9.5T788 514q0 14-9.5 23t-22.5 9h-12q-14 0-23-9t-9-23zM293 347q0-13 9-22.5t22-9.5h174q13 0 22.5 9.5T530 347q0 14-9.5 23t-22.5 9H325q-14 0-23-9t-9-23zm-69-85q-39 35-57.5 97.5T148 523q0 101 18.5 163t57.5 98q40 36 109 53.5T513 855q110 0 179.5-17.5T801 784q39-36 57.5-98T877 523q0-101-18.5-163.5T801 262q-39-36-108.5-54T513 190q-111 0-180 18t-109 54zm-43-47q27-25 61-42t75.5-27q41.5-10 90.5-15 48-5 105-5 56 0 105 5t90 15q41 10 75 27 35 17 61 42 27 24 46 56t30 70.5q11 38.5 16 83.5 5 46 5 98t-5 97q-5 46-16 84.5T890 774q-19 32-46 57-26 25-61 41-34 17-75 27.5T618 915q-49 4-105 4-57 0-105-4-49-5-90.5-15.5T242 872q-34-16-61-41t-46-57q-18-31-29.5-69.5T89 620q-5-45-5-97t5-98q5-45 16.5-83.5T135 271q19-32 46-56z"/></svg>