<svg viewBox="0 0 1024 1024" xmlns="http://www.w3.org/2000/svg"><path d="M226 226q-39 39-58 107.5T149 512q0 110 19 178.5T226 798q39 39 107.5 58T512 875q110 0 178.5-19T798 798q39-39 58-107.5T875 512q0-110-19-178.5T798 226q-39-39-107.5-58T512 149q-110 0-178.5 19T226 226zm-45-45q27-27 61-45t75-29.5Q358 95 407 90t105-5q56 0 105 5t90 16.5q41 11.5 75 29.5t61 45q27 27 45 61t29.5 75q11.5 41 16.5 90t5 105q0 56-5 105t-16.5 90Q906 748 888 782t-45 61q-27 27-61 45t-75 29.5Q666 929 617 934t-105 5q-56 0-105-5t-90-16.5Q276 906 242 888t-61-45q-27-27-45-61t-29.5-75Q95 666 90 617t-5-105q0-56 5-105t16.5-90q11.5-41 29.5-75t45-61zm331 133q13 0 22.5 9.5T544 346v166q0 13-9.5 22.5T512 544q-13 0-22.5-9.5T480 512V346q0-13 9.5-22.5T512 314zm-32 347q0-13 9.5-22.5T512 629q13 0 22.5 9.5T544 661q0 14-9.5 23t-22.5 9q-13 0-22.5-9t-9.5-23z"/></svg>