<svg viewBox="0 0 1024 1024" xmlns="http://www.w3.org/2000/svg"><path d="M685 390q8 9 8 21t-8 20L482 634q-8 9-20.5 9t-20.5-9L339 533q-8-9-8-21t8-21q9-8 21-8t21 8l80 81 182-182q9-9 21-9t21 9zM183 183q26-26 60-45 34-18 75-29t89-16q49-5 105-5t105 5q48 5 89 16t75 29q34 19 60 45t45 60q18 34 29 75t16 89q5 49 5 105t-5 105q-5 48-16 89t-29 75q-19 34-45 60t-60 45q-34 18-75 29t-89 16q-49 5-105 5t-105-5q-48-5-89-16t-75-29q-34-19-60-45t-45-60q-18-34-29-75t-16-89q-5-49-5-105t5-105q5-48 16-89t29-75q19-34 45-60zm41 41q-39 40-58 109t-19 179q0 110 19 179t58 109q40 39 109 58t179 19q110 0 179-19t109-58q39-40 58-109t19-179q0-110-19-179t-58-109q-40-39-109-58t-179-19q-110 0-179 19t-109 58z"/></svg>