<svg viewBox="0 0 1024 1024" xmlns="http://www.w3.org/2000/svg"><path d="M139 736q0-13 9.5-22.5T171 704h276q14 0 23 9.5t9 22.5q0 13-9 22.5t-23 9.5H171q-13 0-22.5-9.5T139 736zm484-114q21-20 50.5-27t63.5-7q34 0 63 7t50 27q21 21 28 50.5t7 63.5q0 34-7 63t-28 50q-21 21-50 28t-63 7q-34 0-63.5-7T623 849q-20-21-27-50t-7-63q0-34 7-63.5t27-50.5zm46 46q-7 6-11.5 21t-4.5 47q0 31 4.5 46t11.5 22q6 6 21 11t47 5q31 0 46-5t22-11q6-7 11-22t5-46q0-32-5-47t-11-21q-7-7-22-11.5t-46-4.5q-32 0-47 4.5T669 668zM545 288q0-13 9-22.5t23-9.5h276q13 0 22.5 9.5T885 288q0 14-9.5 23t-22.5 9H577q-14 0-23-9t-9-23zM174 175q21-21 50-28t63-7q34 0 63.5 7t50.5 28q20 21 27 50t7 63q0 34-7 63.5T401 402q-21 20-50.5 27t-63.5 7q-34 0-63-7t-50-27q-21-21-28-50.5t-7-63.5q0-34 7-63t28-50zm45 45q-6 7-11 22t-5 46q0 32 5 47t11 21q7 7 22 11.5t46 4.5q32 0 47-4.5t21-11.5q7-6 11.5-21t4.5-47q0-31-4.5-46T355 220q-6-6-21-11t-47-5q-31 0-46 5t-22 11z"/></svg>