<svg viewBox="0 0 1024 1024" xmlns="http://www.w3.org/2000/svg"><path d="M297 292q0-45 17-84t46.5-68.5Q390 110 430 93q39-16 84-16t84 17q39 17 68.5 46.5T713 209q17 39 17 84 0 13-9.5 22.5T698 325q-13 0-22.5-9.5T666 293q0-63-44.5-107.5T514 141q-63 0-108 44t-45 107v1q0 13-9.5 22.5T329 325q-14 0-23-9.5t-9-22.5v-1zm308 193q0-13 9.5-22.5T637 453h2q13 0 22.5 9.5T671 485q0 14-9.5 23t-22.5 9h-2q-13 0-22.5-9t-9.5-23zm-249 0q0-13 9.5-22.5T388 453h2q13 0 22.5 9.5T422 485q0 14-9.5 23t-22.5 9h-2q-13 0-22.5-9t-9.5-23zM208 377q-36 29-47 79.5T172 590q12 43 22.5 79t22.5 65q11 29 24 50.5t28 37.5q31 31 86.5 47T513 885q103 0 158.5-16t85.5-47q16-16 29-37.5t24-50.5q12-29 22.5-65t21.5-79q23-83 12-133.5T818 377q-39-32-114-48.5T513 312q-115 0-190 16.5T208 377zm-40-50q27-22 62-37 36-15 79.5-24.5T404 252q51-4 109-4 59 0 110 4t94.5 13.5Q761 275 797 290q35 15 62 37 57 47 69.5 117.5T916 607q-11 43-22.5 80.5T870 757q-13 33-29 60.5T803 867q-45 45-114.5 63.5T513 949q-105 0-174.5-18.5T224 867q-22-22-38-49.5T157 757q-13-32-24-69.5T111 607l57-280zm0 0q-57 47-69.5 117.5T111 607l57-280z"/></svg>