<?xml version="1.0" encoding="UTF-8"?>
<svg id="Layer_2" data-name="Layer 2" xmlns="http://www.w3.org/2000/svg" viewBox="0 0 20.06 20.05">
  <defs>
    <style>
      .cls-1 {
        fill: #c19277;
      }

      .cls-1, .cls-2, .cls-3 {
        stroke-width: 0px;
      }

      .cls-2 {
        fill: none;
      }

      .cls-3 {
        fill: #575756;
      }
    </style>
  </defs>
  <g id="Variations">
    <g id="News">
      <path class="cls-3" d="m19.79,19.19l-.76-2.4v2.26H6.08c-.15,0-.31-.11-.34-.16l-.68-2.16L1.13,4.28h4.95v-1H.79C.23,3.28-.11,3.67.04,4.14l4.75,15.05c.13.42.59.76,1.08.84.06,0,.14.02.21.02h12.95c.07,0,.14-.01.21-.02.07-.01.13-.03.19-.06.06-.03.12-.06.18-.1.19-.16.27-.4.18-.68Z"/>
      <path class="cls-1" d="m19.03,0H6.08c-.56,0-1.02.46-1.02,1.02v6.5c0,.28.23.5.51.5s.5-.22.5-.5v-3.24s.01-3.28.01-3.28h12.95l.03.02-.03,15.77v2.26h-.34l-12.63-.03v-6.49s.01-.02.01-.02c-.01-.28-.23-.49-.51-.49s-.5.22-.5.5v6.5c0,.5.35.91.81,1.01.06,0,.14.02.21.02h12.95c.07,0,.14-.01.21-.02.07-.01.13-.03.19-.06.06-.03.12-.06.18-.1.27-.18.45-.49.45-.85V1.02c0-.56-.46-1.02-1.03-1.02Z"/>
      <g>
        <path class="cls-3" d="m11.17,10.12l-1.98-3.06v3.06h-.97v-4.99h.87l1.97,3.05v-3.05h.97v4.99h-.87Z"/>
        <path class="cls-3" d="m14.43,10.12v-4.99h3.29v.87h-2.31v1.17h1.97v.87h-1.97v1.21h2.31v.87h-3.29Z"/>
        <path class="cls-3" d="m12.47,15.32h-.81l-.92-3.03-.92,3.03h-.81l-1.33-4.99h1.02l.77,3.15.91-3.15h.73l.91,3.15.78-3.15h1.02l-1.34,4.99Z"/>
        <path class="cls-3" d="m15.9,15.36c-.76,0-1.33-.16-1.82-.66l.63-.63c.31.31.74.42,1.2.42.57,0,.88-.22.88-.62,0-.17-.05-.32-.15-.42-.1-.09-.21-.14-.44-.18l-.6-.08c-.43-.06-.74-.2-.97-.41-.24-.24-.36-.56-.36-.98,0-.89.66-1.51,1.74-1.51.69,0,1.18.17,1.61.58l-.62.61c-.32-.3-.69-.34-1.02-.34-.52,0-.77.29-.77.63,0,.13.04.26.15.36.1.09.26.17.46.2l.59.08c.46.06.74.19.95.39.27.25.38.62.38,1.06,0,.97-.8,1.51-1.85,1.51Z"/>
      </g>
      <rect class="cls-2" x=".03" y=".02" width="20" height="20"/>
    </g>
  </g>
</svg>