<?xml version="1.0" encoding="UTF-8"?>
<svg id="Layer_2" data-name="Layer 2" xmlns="http://www.w3.org/2000/svg" viewBox="0 0 20 20">
  <defs>
    <style>
      .cls-1 {
        fill: #c19277;
      }

      .cls-1, .cls-2, .cls-3 {
        stroke-width: 0px;
      }

      .cls-4 {
        stroke: #575756;
        stroke-linecap: round;
        stroke-miterlimit: 10;
      }

      .cls-4, .cls-2 {
        fill: none;
      }

      .cls-3 {
        fill: #575756;
      }
    </style>
  </defs>
  <g id="Variations">
    <g id="Coffee_Brew" data-name="Coffee Brew">
      <rect class="cls-2" y="0" width="20" height="20"/>
      <path class="cls-1" d="m18.89,18.36l-3-6.74v-2.38c0-.56-.46-1.02-1.02-1.02H5.13c-.56,0-1.02.46-1.02,1.02v2.37l-.51,1.15s-.02.04-.03.06c-.02.05-.03.11-.03.17,0,.21.13.39.31.46.05.02.1.03.15.03.02.01.03.01.05.01.19,0,.37-.11.45-.28.01-.02.01-.03.02-.05l.51-1.14.08-.2v-.21l.02-2.39h9.74l.02.02v2.59l.09.2,3.01,6.76s.02.05-.01.1c0,.02-.08.11-.23.11H2.25c-.15,0-.22-.09-.23-.11-.03-.05-.02-.08,0-.12l.37-.83s.03-.06.04-.09c.03-.06.04-.12.04-.19,0-.24-.17-.44-.4-.49-.03-.01-.06-.01-.1-.01-.18,0-.33.09-.42.22-.02.03-.03.06-.04.09l-.4.89c-.37.77.24,1.64,1.14,1.64h15.5c.9,0,1.51-.87,1.14-1.64Z"/>
      <path class="cls-3" d="m14.47,1v.02s-2.13,4.98-2.13,4.98h-4.68S5.53,1,5.53,1h8.93m0-1H5.53c-.73,0-1.22.74-.93,1.41l2.13,4.98c.16.37.53.61.93.61h4.67c.4,0,.77-.24.93-.61l2.13-4.98c.29-.67-.2-1.41-.93-1.41h0Z"/>
      <path class="cls-3" d="m8.96,13.62c0,.55-.45,1-1,1s-1-.45-1-1,1-1.9,1-1.9c0,0,1,1.35,1,1.9Z"/>
      <path class="cls-3" d="m12.96,15.62c0,.55-.45,1-1,1s-1-.45-1-1,1-1.9,1-1.9c0,0,1,1.35,1,1.9Z"/>
      <line class="cls-4" x1="4.62" y1="6.51" x2="15.39" y2="6.51"/>
    </g>
  </g>
</svg>