<?xml version="1.0" encoding="UTF-8"?>
<svg id="Layer_2" data-name="Layer 2" xmlns="http://www.w3.org/2000/svg" viewBox="0 0 20 20">
  <defs>
    <style>
      .cls-1 {
        fill: #c19277;
      }

      .cls-1, .cls-2, .cls-3 {
        stroke-width: 0px;
      }

      .cls-2 {
        fill: none;
      }

      .cls-3 {
        fill: #575756;
      }
    </style>
  </defs>
  <g id="Variations">
    <g id="Cake_Recipie" data-name="Cake Recipie">
      <g>
        <path class="cls-1" d="m.44,11.65v4.39c0,1.1.9,2,2,2h1.5c.25,0,.45-.17.5-.4v-.12c0-.14-.06-.24-.14-.34-.1-.08-.22-.14-.36-.14h-1.5c-.55,0-1-.45-1-1v-4.08h17.12v4.08c0,.55-.46,1-1.01,1h-8.61c-.28,0-.5.22-.5.5s.22.5.5.5h8.61c1.11,0,2.01-.9,2.01-2v-4.39H.44Z"/>
        <path class="cls-3" d="m14.16,4.64l-1.9.87c.18.3.32.61.43.91l1.59-.73c4,1,4.26,5.22,4.27,5.35v.57H1.44s6.15-2.84,6.15-2.84c-.18-.14-.35-.3-.51-.46-.09-.09-.18-.19-.26-.29L.44,10.96v1.65h19.11v-1.57s-.23-5.37-5.39-6.4Z"/>
        <path class="cls-1" d="m11.59,3.82c-1.2-1.21-2.69-1.86-3.96-1.86-.78,0-1.47.24-1.98.75-1.34,1.33-.86,4,1.08,5.95,1.2,1.21,2.69,1.86,3.96,1.86.78,0,1.47-.24,1.98-.75,1.34-1.33.86-4-1.08-5.95Zm-.71.71c.79.79,1.33,1.77,1.5,2.68.06.32.1.84-.07,1.32-.69-1.09-1.89-2.69-2.96-2.77-1-.08-1.54-.35-2.46-2.63l-.3.12c.35-.23.75-.29,1.05-.29,1.06,0,2.27.59,3.25,1.57Zm-3.44,3.42c-.79-.79-1.33-1.77-1.5-2.68-.07-.36-.11-.96.14-1.47.91,2.14,1.66,2.83,3.18,2.95.54.04,1.56,1.27,2.35,2.56-.31.16-.66.21-.93.21-1.06,0-2.27-.59-3.25-1.57Z"/>
      </g>
      <rect class="cls-2" width="20" height="20"/>
    </g>
  </g>
</svg>