<?xml version="1.0" encoding="UTF-8"?>
<svg id="Layer_2" data-name="Layer 2" xmlns="http://www.w3.org/2000/svg" viewBox="0 0 20 20">
  <defs>
    <style>
      .cls-1 {
        fill: #c19277;
      }

      .cls-1, .cls-2, .cls-3 {
        stroke-width: 0px;
      }

      .cls-2 {
        fill: none;
      }

      .cls-3 {
        fill: #575756;
      }
    </style>
  </defs>
  <g id="Variations">
    <g id="Coffee_News" data-name="Coffee News">
      <path class="cls-3" d="m15.7,4.27c-.32-.14-.65-.26-1-.35v1.04c.35.11.69.25,1,.42,1.67.86,2.8,2.45,2.8,4.26s-1.21,3.52-2.99,4.36c-.36.18-.75.32-1.16.42-.14.39-.31.76-.54,1.11.45-.05.88-.15,1.3-.3,2.56-.83,4.39-3.02,4.39-5.59,0-2.37-1.55-4.41-3.8-5.37Z"/>
      <path class="cls-1" d="m13.54.54H2.65C1.46.54.5,1.51.5,2.7v3.12c0,.28.22.5.5.5s.5-.22.5-.5v-3.12c0-.64.51-1.16,1.15-1.16h10.89c.64,0,1.16.52,1.16,1.16v9.7c0,.71-.12,1.39-.35,2.02-.14.39-.31.76-.54,1.11-1.05,1.76-2.99,2.93-5.18,2.93h-1.07c-3.34,0-6.06-2.72-6.06-6.06v-1.58c0-.28-.22-.5-.5-.5s-.5.22-.5.5v1.58c0,3.9,3.16,7.06,7.06,7.06h1.07c2.89,0,5.39-1.74,6.48-4.23.17-.39.31-.8.4-1.23.13-.51.19-1.05.19-1.6V2.7c0-1.19-.97-2.16-2.16-2.16Z"/>
      <g>
        <path class="cls-3" d="m6.49,7.09l-1.63-2.52v2.52h-.8V2.98h.72l1.63,2.51v-2.51h.8v4.11h-.71Z"/>
        <path class="cls-3" d="m9.23,7.09V2.98h2.71v.71h-1.9v.96h1.62v.72h-1.62v1h1.9v.71h-2.71Z"/>
        <path class="cls-3" d="m7.56,12.09h-.67l-.76-2.49-.75,2.49h-.67l-1.1-4.11h.84l.63,2.59.75-2.59h.6l.75,2.59.64-2.59h.84l-1.1,4.11Z"/>
        <path class="cls-3" d="m10.44,12.13c-.62,0-1.1-.13-1.5-.54l.52-.52c.26.26.61.35.99.35.47,0,.73-.18.73-.51,0-.14-.04-.26-.13-.35-.08-.08-.17-.12-.36-.14l-.5-.07c-.35-.05-.61-.16-.8-.34-.2-.2-.29-.46-.29-.81,0-.73.54-1.25,1.43-1.25.57,0,.98.14,1.33.48l-.51.5c-.26-.25-.57-.28-.84-.28-.43,0-.63.24-.63.52,0,.1.03.21.12.29.08.08.21.14.38.16l.48.07c.38.05.61.16.78.32.22.21.32.51.32.87,0,.8-.66,1.25-1.52,1.25Z"/>
      </g>
      <path class="cls-1" d="m11.72,14.36H3.94c-.28,0-.5-.22-.5-.5s.22-.5.5-.5h7.78c.28,0,.5.22.5.5s-.22.5-.5.5Z"/>
      <path class="cls-1" d="m8.98,15.99H3.94c-.28,0-.5-.22-.5-.5s.22-.5.5-.5h5.04c.28,0,.5.22.5.5s-.22.5-.5.5Z"/>
      <rect class="cls-2" width="20" height="20"/>
    </g>
  </g>
</svg>