<?xml version="1.0" encoding="UTF-8"?>
<svg id="Layer_2" data-name="Layer 2" xmlns="http://www.w3.org/2000/svg" viewBox="0 0 20 20.03">
  <defs>
    <style>
      .cls-1 {
        fill: #c19277;
      }

      .cls-1, .cls-2, .cls-3 {
        stroke-width: 0px;
      }

      .cls-2 {
        fill: none;
      }

      .cls-3 {
        fill: #3c3c3b;
      }
    </style>
  </defs>
  <g id="Variations">
    <g id="Roasting">
      <path class="cls-1" d="m10,8.8c-4.58,0-8.28,2.52-8.28,5.63,0,2.47,2.33,4.57,5.58,5.32,0,0,.03.01.04.01.05,0,.09.02.13.03h.03c.27,0,.5-.23.5-.51,0-.2-.13-.38-.31-.46-.06-.01-.13-.03-.19-.04-1.05-.24-2.01-.65-2.8-1.19-1.28-.88-1.98-2-1.98-3.16,0-2.51,3.33-4.63,7.28-4.63,2.01,0,3.89.52,5.29,1.47,1.28.87,1.99,2,1.99,3.16,0,1.97-2.05,3.69-4.84,4.35-.05,0-.09.01-.14.03-.18.08-.3.26-.3.47,0,.28.22.5.5.5.03,0,.07,0,.1-.01,3.3-.74,5.68-2.85,5.68-5.34,0-3.11-3.71-5.63-8.28-5.63Z"/>
      <path class="cls-1" d="m13.33,15.96c-1.18,0-2.29-.54-3.36-1.07-.87-.42-1.69-.83-2.4-.85-.62-.02-1.37.13-2.24.31-.87.18-1.86.38-3.02.48l-.08-1c1.1-.09,2.05-.28,2.9-.46.93-.19,1.74-.36,2.48-.33.92.04,1.83.48,2.8.95.97.47,1.98.97,2.93.97h0c.82,0,1.68-.41,2.45-.77.57-.27,1.06-.5,1.49-.54l.09,1c-.25.02-.69.23-1.16.45-.82.38-1.83.86-2.87.86h-.01Z"/>
      <path class="cls-3" d="m6.41.57c.31.64.87,1.17.99,2.04.19,1.6-1.2,2.71-1.39,4.04-.03.64.08,1.49-.15,2.15-.2-.77-.5-1.32-.63-2.13-.19-1.46,1.25-2.71,1.39-4.02.07-.59-.29-1.31-.21-2.08h0Z"/>
      <path class="cls-3" d="m10.08,0c.31.64.87,1.17.99,2.04.19,1.6-1.2,2.71-1.39,4.04-.03.64.08,1.49-.15,2.15-.2-.77-.5-1.32-.63-2.13-.19-1.46,1.25-2.71,1.39-4.02.07-.59-.29-1.31-.21-2.08h0Z"/>
      <path class="cls-3" d="m13.75.35c.31.64.87,1.17.99,2.04.19,1.6-1.2,2.71-1.39,4.04-.03.64.08,1.49-.15,2.15-.2-.77-.5-1.32-.63-2.13-.19-1.46,1.25-2.71,1.39-4.02.07-.59-.29-1.31-.21-2.08h0Z"/>
      <rect class="cls-2" y=".03" width="20" height="20"/>
    </g>
  </g>
</svg>