<?xml version="1.0" encoding="UTF-8"?>
<svg id="Layer_2" data-name="Layer 2" xmlns="http://www.w3.org/2000/svg" viewBox="0 0 20 20">
  <defs>
    <style>
      .cls-1 {
        fill: #c19277;
      }

      .cls-1, .cls-2, .cls-3 {
        stroke-width: 0px;
      }

      .cls-2 {
        fill: none;
      }

      .cls-3 {
        fill: #575756;
      }
    </style>
  </defs>
  <g id="Variations">
    <g id="Encyclepedia">
      <path class="cls-3" d="m18.26,1.37c.21,0,.41,0,.6.01.08,0,.13.06.13.13v14.05c0,.09-.08.13-.15.13,0,0,0,0,0,0-.61-.11-1.24-.16-1.86-.16-.73,0-1.47.08-2.19.23-1.56.34-2.82.99-3.78,1.66V3.6c1.29-.88,2.71-1.5,4.23-1.87.99-.24,2.01-.36,3.03-.36m0-1c-.94,0-2.05.09-3.26.39-2.35.57-4.04,1.62-4.99,2.33v16.54c.58-.63,2.24-2.29,4.99-2.88.7-.15,1.37-.21,1.98-.21s1.19.06,1.68.15c.07.01.14.02.21.02.61,0,1.13-.49,1.13-1.13V1.52c0-.61-.48-1.11-1.09-1.13-.2,0-.42-.01-.65-.01h0Z"/>
      <path class="cls-1" d="m5.01.76c-1.22-.3-2.33-.39-3.27-.39-.22,0-.44.01-.64.02C.49.41.01.91.01,1.52v4.64c0,.28.22.5.5.5s.5-.22.5-.5V1.52c0-.07.06-.13.14-.14.19,0,.39-.01.59-.01,1.02,0,2.04.12,3.03.36,1.52.37,2.94.99,4.23,1.87v13.83c-.96-.68-2.22-1.33-3.78-1.67-.72-.15-1.46-.23-2.19-.23-.62,0-1.24.05-1.89.17-.05,0-.13-.04-.13-.13v-4.4c0-.28-.22-.5-.5-.5S.01,10.89.01,11.17v4.4c0,.64.52,1.13,1.13,1.13.07,0,.14-.01.21-.02.48-.09,1.05-.15,1.68-.15s1.27.06,1.98.21c2.75.59,4.41,2.25,4.99,2.88V3.08c-.96-.7-2.65-1.76-4.99-2.32Z"/>
      <rect class="cls-2" width="20" height="20"/>
    </g>
  </g>
</svg>