<?xml version="1.0" encoding="UTF-8"?>
<svg id="Layer_2" data-name="Layer 2" xmlns="http://www.w3.org/2000/svg" viewBox="0 0 20 20">
  <defs>
    <style>
      .cls-1 {
        fill: #c19277;
      }

      .cls-1, .cls-2, .cls-3 {
        stroke-width: 0px;
      }

      .cls-2 {
        fill: none;
      }

      .cls-3 {
        fill: #575756;
      }
    </style>
  </defs>
  <g id="Variations">
    <g id="Health">
      <path class="cls-1" d="m16.54,11.09l-4.48,4.48c.38.02.69.25.83.58l4.23-4.23c-.33-.14-.56-.45-.58-.83Zm1.79-8.45c-1.11-1.12-2.57-1.68-4.03-1.68s-2.92.56-4.04,1.68l-.26.25-.25-.25c-1.12-1.12-2.58-1.68-4.04-1.68s-2.92.56-4.03,1.68C.56,3.75,0,5.21,0,6.67s.55,2.93,1.67,4.04l8.32,8.32h.01l1.98-1.98v-.49h-.93l-1.06,1.06-7.62-7.62c-.89-.89-1.38-2.07-1.38-3.33s.49-2.44,1.38-3.33c.89-.89,2.07-1.38,3.33-1.38s2.44.49,3.33,1.38l.26.26.7.71.71-.71.26-.26c.89-.89,2.07-1.38,3.33-1.38s2.44.49,3.33,1.38c1.83,1.84,1.83,4.82,0,6.66l-.1.1v.91s.5,0,.5,0l.3-.3c2.23-2.23,2.23-5.85,0-8.07Z"/>
      <path class="cls-3" d="m20,13v1.57c0,.55-.44.99-.98.99h-1.5c-.55,0-.99.44-.99.99v1.5c0,.54-.44.99-.99.99h-1.57c-.55,0-.99-.45-.99-.99v-1.5c0-.14-.03-.28-.09-.4-.14-.33-.45-.56-.83-.58-.02-.01-.05-.01-.07-.01h-1.5c-.54,0-.99-.44-.99-.99v-1.57c0-.55.45-.99.99-.99h1.5c.55,0,.99-.44.99-.99v-1.5c0-.54.44-.98.99-.98h1.57c.55,0,.99.44.99.98v1.5s0,.05.01.07c.02.38.25.69.58.83.12.06.26.09.4.09h1.5c.54,0,.98.44.98.99Z"/>
      <rect class="cls-2" width="20" height="20"/>
    </g>
  </g>
</svg>