<?xml version="1.0" encoding="UTF-8"?>
<svg id="Layer_2" data-name="Layer 2" xmlns="http://www.w3.org/2000/svg" viewBox="0 0 17.21 19.73">
  <defs>
    <style>
      .cls-1 {
        fill: #c19277;
      }

      .cls-1, .cls-2 {
        stroke-width: 0px;
      }

      .cls-2 {
        fill: #575756;
      }
    </style>
  </defs>
  <g id="Variations">
    <g id="Single_Origin" data-name="Single Origin">
      <g>
        <g>
          <path class="cls-1" d="m13.96,9.55c-.31-.17-.65-.33-1-.46-1.28-.52-2.77-.81-4.36-.81C3.85,8.28,0,10.9,0,14.13c0,2.59,2.48,4.8,5.92,5.55.01.01.02.01.03.01.05.02.09.03.14.03h.02c.24,0,.44-.17.49-.4,0,0,.02-.04,0-.2s-.19-.35-.39-.39c-2.61-.58-4.64-2.06-5.1-3.82-.08-.26-.11-.52-.11-.78,0-.07,0-.15.01-.22.08-1.14.81-2.23,2.07-3.09,1.46-.99,3.42-1.54,5.52-1.54,3.87,0,7.18,1.96,7.57,4.37.03.16.04.32.04.48,0,.18-.02.35-.05.53-.18,1.03-.89,2-2.04,2.79-.88.6-1.95,1.03-3.12,1.28-.22.05-.4.25-.4.49,0,.28.22.5.49.51h.01c.07-.01.13-.03.2-.04,3.43-.76,5.91-2.96,5.91-5.56,0-1.85-1.27-3.51-3.25-4.58Z"/>
          <path class="cls-1" d="m11.25,15.56c-.05,0-.1,0-.16,0-.95-.04-1.9-.5-2.9-.99-1.02-.5-2.05-.97-3.06-1.01-.85,0-1.76.43-2.55.8-.59.28-1.1.52-1.54.56l-.09-1c.27-.02.72-.24,1.21-.47.85-.4,1.9-.89,2.97-.89h.01c1.22,0,2.37.56,3.49,1.11.91.44,1.76.86,2.5.89.6.02,1.3-.15,2.1-.35.88-.22,1.88-.48,3.14-.58l.08,1c-1.17.09-2.13.34-2.97.55-.81.21-1.52.38-2.22.38Z"/>
        </g>
        <g>
          <path class="cls-2" d="m13.46.5H4.55c-.67,0-1.05.68-.65,1.16l1.46,1.75-1.46,1.75c-.4.48-.02,1.16.65,1.16h8.9s0-5.83,0-5.83Z"/>
          <path class="cls-1" d="m13.46,10.23c-.28,0-.5-.22-.5-.5V.5c0-.28.22-.5.5-.5s.5.22.5.5v9.23c0,.28-.22.5-.5.5Z"/>
        </g>
      </g>
    </g>
  </g>
</svg>