<?xml version="1.0" encoding="UTF-8"?>
<svg id="Layer_2" data-name="Layer 2" xmlns="http://www.w3.org/2000/svg" viewBox="0 0 20 20">
  <defs>
    <style>
      .cls-1 {
        fill: #c19277;
      }

      .cls-1, .cls-2, .cls-3 {
        stroke-width: 0px;
      }

      .cls-2 {
        fill: none;
      }

      .cls-3 {
        fill: #575756;
      }
    </style>
  </defs>
  <g id="Variations">
    <g id="Multi_Origin" data-name="Multi Origin">
      <g>
        <path class="cls-3" d="m18.41,7.67c-.78-.79-1.87-1.17-3.08-1.17-1.69,0-3.62.74-5.33,2.12-.26.2-.52.43-.77.66.26.2.52.42.77.66.24-.23.5-.45.76-.66,1.46-1.13,3.1-1.78,4.57-1.78.5,0,1.17.09,1.78.43.21.12.41.26.6.45.06.06.12.12.17.19,1.44,1.74.58,5.21-1.95,7.75-.86.86-1.82,1.53-2.81,1.99-.93.43-1.87.66-2.75.66-.12,0-.24,0-.37-.02-.13.02-.25.02-.37.02-.88,0-1.83-.24-2.76-.66.12.17.26.34.41.49.71.71,1.66,1.09,2.72,1.15.12.02.25.02.37.02,2,0,4.35-1.03,6.26-2.95,3.08-3.07,3.87-7.26,1.78-9.35Zm-10.78,5.66c-.04-.13-.08-.26-.13-.39-.11-.32-.22-.64-.35-.95-.23.44-.43.87-.58,1.31.19.56.38,1.1.62,1.58.08-.5.23-1.02.44-1.55Z"/>
        <g>
          <path class="cls-3" d="m9.06,15.59c.24.19.52.37.82.57-.15.25-.33.52-.55.83-.3-.19-.57-.37-.82-.56.23-.32.4-.59.55-.84Z"/>
          <path class="cls-3" d="m17.97,8.44s-.06.08-.09.13c-.12.21-.25.57-.38.94-.3.81-.66,1.81-1.36,2.52-.71.71-1.67,1.1-2.65,1.44-.12.04-.23.08-.35.12-.2.07-.41.14-.6.21-.1-.31-.23-.62-.38-.93.21-.07.43-.15.66-.23.1-.03.2-.07.3-.11.88-.3,1.75-.64,2.31-1.21.54-.54.85-1.4,1.13-2.15.17-.5.33-.93.55-1.24.03-.05.06-.09.09-.13l.77.64Z"/>
        </g>
      </g>
      <g>
        <path class="cls-1" d="m13.49,13.47c-.1-.31-.23-.63-.37-.94-.5-1.07-1.24-2.13-2.19-3.08l-.17-.17c-.25-.23-.5-.45-.76-.66-1.71-1.38-3.64-2.12-5.33-2.12-1.21,0-2.3.38-3.09,1.17C.05,9.2.07,11.85,1.39,14.36c.02.03.04.07.06.1.09.13.24.22.42.22.1,0,.2-.03.28-.08l.1-.09c.07-.09.12-.2.12-.33,0-.07-.01-.14-.04-.2-.01-.03-.03-.06-.04-.08-.94-1.8-1.14-3.67-.44-4.92.11-.22.26-.42.44-.6.06-.06.13-.12.2-.17.69-.58,1.55-.71,2.18-.71,1.47,0,3.11.65,4.56,1.78.26.2.52.42.77.66.08.07.16.15.23.22.83.83,1.48,1.77,1.93,2.71.15.31.28.62.38.93.52,1.56.45,3.05-.29,4.03-.08.09-.15.18-.24.27-.17.16-.35.3-.53.41-.49.29-1.02.41-1.48.44-.13.02-.25.02-.37.02-.88,0-1.83-.24-2.76-.66-.45-.21-.89-.47-1.32-.75-.04-.05-.09-.08-.15-.11-.06-.03-.13-.04-.2-.04-.11,0-.2.03-.28.09-.03.02-.05.04-.07.06-.1.09-.15.22-.15.35,0,.16.07.3.19.39.02.02.04.03.06.05,1.54,1.06,3.2,1.62,4.68,1.62.12,0,.25,0,.37-.02,1.06-.06,2.01-.44,2.71-1.15.15-.15.29-.32.41-.49.88-1.25.98-3.02.37-4.84Z"/>
        <path class="cls-1" d="m12.45,18l-.65.76c-.11-.09-.22-.18-.32-.25-.68-.56-1.31-.97-1.87-1.34-.1-.06-.19-.12-.28-.17h0c-.3-.2-.57-.38-.82-.57-.26-.2-.5-.4-.71-.63-.24-.27-.44-.58-.61-.92-.24-.48-.43-1.02-.62-1.58,0-.01-.01-.02-.01-.03-.34-.98-.69-1.98-1.32-2.62-.55-.54-1.4-.85-2.16-1.12-.48-.18-.92-.33-1.23-.55-.05-.03-.1-.06-.14-.1l.64-.76s.08.06.14.09c.22.12.57.24.93.38.81.29,1.82.65,2.52,1.35.57.56.93,1.29,1.21,2.05.13.31.24.63.35.95.05.13.09.26.13.39.26.72.52,1.37.91,1.79.15.16.32.32.52.47.24.19.52.37.82.57.09.05.18.11.27.17.63.4,1.33.86,2.1,1.5.06.05.13.11.2.17Z"/>
      </g>
      <path class="cls-1" d="m18.48.51h-6.97c-.52,0-.82.54-.51.91l1.14,1.37-1.14,1.37c-.31.38-.02.91.51.91h6.97s0-4.57,0-4.57Z"/>
      <path class="cls-3" d="m18.48,9.02c-.28,0-.5-.22-.5-.5V.51c0-.28.22-.5.5-.5s.5.22.5.5v8c0,.28-.22.5-.5.5Z"/>
      <path class="cls-3" d="m1.37.51h6.97c.52,0,.82.54.51.91l-1.14,1.37,1.14,1.37c.31.38.02.91-.51.91H1.37V.51Z"/>
      <path class="cls-1" d="m1.37,9.26c-.28,0-.5-.22-.5-.5V.51C.87.24,1.09.01,1.37.01s.5.22.5.5v8.25c0,.28-.22.5-.5.5Z"/>
      <rect class="cls-2" width="20" height="20"/>
    </g>
  </g>
</svg>