<?xml version="1.0" encoding="UTF-8"?>
<svg id="Layer_2" data-name="Layer 2" xmlns="http://www.w3.org/2000/svg" viewBox="0 0 20.08 20">
  <defs>
    <style>
      .cls-1 {
        fill: #c19277;
      }

      .cls-1, .cls-2, .cls-3 {
        stroke-width: 0px;
      }

      .cls-2 {
        fill: none;
      }

      .cls-3 {
        fill: #575756;
      }
    </style>
  </defs>
  <g id="Variations">
    <g id="Speciality_Coffee" data-name="Speciality Coffee">
      <g>
        <polygon class="cls-3" points="7.76 0 8.38 1.26 9.76 1.46 8.76 2.43 9 3.8 7.76 3.16 6.53 3.8 6.76 2.43 5.77 1.46 7.15 1.26 7.76 0"/>
        <polygon class="cls-3" points="12.51 0 13.13 1.26 14.51 1.46 13.51 2.43 13.75 3.8 12.51 3.16 11.28 3.8 11.51 2.43 10.52 1.46 11.9 1.26 12.51 0"/>
        <polygon class="cls-3" points="17.26 0 17.88 1.26 19.26 1.46 18.26 2.43 18.5 3.8 17.26 3.16 16.03 3.8 16.26 2.43 15.26 1.46 16.65 1.26 17.26 0"/>
        <polygon class="cls-3" points="2.82 0 3.43 1.26 4.82 1.46 3.82 2.43 4.05 3.8 2.82 3.16 1.58 3.8 1.82 2.43 .82 1.46 2.2 1.26 2.82 0"/>
      </g>
      <g>
        <path class="cls-1" d="m10.04,6.33C4.49,6.33,0,9.39,0,13.16c0,3.14,3.1,5.79,7.34,6.58.01,0,.02.01.03.01.06.01.11.02.17.03h.01c.28-.01.49-.23.49-.51,0-.23-.16-.44-.39-.49h-.03c-1.55-.28-2.96-.82-4.12-1.61-1.49-1.02-2.36-2.31-2.48-3.68-.02-.11-.02-.22-.02-.33,0-.23.02-.45.06-.68.52-2.89,4.34-5.15,8.98-5.15,2.49,0,4.81.65,6.54,1.83,1.29.88,2.12,1.97,2.4,3.12.07.29.1.59.1.88v.14c-.1,2.63-2.88,4.83-6.65,5.49-.19.04-.35.19-.39.39v.2c.05.23.25.4.49.4.05,0,.1-.01.15-.03,4.27-.77,7.4-3.44,7.4-6.59,0-3.77-4.49-6.83-10.04-6.83Z"/>
        <path class="cls-1" d="m14.08,14.91c-1.4,0-2.74-.65-4.04-1.28-1.07-.52-2.07-1.01-2.95-1.04-.78-.03-1.7.16-2.78.38-1.07.22-2.27.46-3.67.57l-.08-1c1.33-.11,2.51-.34,3.55-.56,1.14-.23,2.11-.44,3.01-.4,1.09.04,2.19.58,3.35,1.15,1.19.58,2.43,1.18,3.6,1.18h.01c1.03,0,2.36-.59,3.44-1.05.82-.36,1.47-.64,1.96-.69l.09,1c-.33.03-.97.31-1.66.61-1.16.5-2.6,1.13-3.83,1.14h-.02Z"/>
      </g>
      <rect class="cls-2" x=".04" width="20" height="20"/>
    </g>
  </g>
</svg>