<?xml version="1.0" encoding="UTF-8"?>
<svg id="Layer_2" data-name="Layer 2" xmlns="http://www.w3.org/2000/svg" viewBox="0 0 20 20">
  <defs>
    <style>
      .cls-1 {
        fill: #c19277;
      }

      .cls-1, .cls-2, .cls-3 {
        stroke-width: 0px;
      }

      .cls-2 {
        fill: none;
      }

      .cls-3 {
        fill: #575756;
      }
    </style>
  </defs>
  <g id="Variations">
    <g id="Coffee_Drinks" data-name="Coffee Drinks">
      <path class="cls-3" d="m14.77,9.65h-2v1h2c1.65,0,3,1.34,3,3s-1.35,3-3,3h-2.8c-.24.37-.52.71-.84,1h3.64c2.21,0,4-1.79,4-4s-1.79-4-4-4Z"/>
      <path class="cls-1" d="m12.75,8H2.62c-.56,0-1.02.46-1.02,1.02v1.98c0,.28.22.51.51.51.25,0,.45-.18.5-.41v-2.1h10.14l.02.02v4.9c0,1-.29,1.94-.8,2.73-.24.37-.52.71-.84,1-.9.84-2.12,1.35-3.45,1.35-2.11,0-3.92-1.29-4.68-3.12-.01-.02-.02-.05-.03-.07-.08-.18-.25-.3-.46-.3-.28,0-.51.23-.51.51,0,.03,0,.06.01.08v.02c.02.06.05.12.08.18.92,2.18,3.08,3.7,5.59,3.7,1.95,0,3.69-.92,4.8-2.35.25-.31.46-.64.63-1,.43-.82.66-1.75.66-2.73v-4.9c0-.56-.46-1.02-1.02-1.02Z"/>
      <path class="cls-1" d="m11.43,4c0,1.1-.9,2-2,2s-2-.9-2-2S9.43,0,9.43,0c0,0,2,2.9,2,4Z"/>
      <path class="cls-1" d="m6.43,3.67c0,.74-.6,1.33-1.33,1.33s-1.33-.6-1.33-1.33,1.33-2.67,1.33-2.67c0,0,1.33,1.93,1.33,2.67Z"/>
      <rect class="cls-2" width="20" height="20"/>
    </g>
  </g>
</svg>