<svg viewBox="0 0 2645 1560.1129" xmlns="http://www.w3.org/2000/svg"><path d="M491 965q-64-2-125.5-23T252 883q-53-38-92-90T99 681q-20-50-27-103.5T72 471q7-70 36.5-134.5T187 220q35-39 79-68.5t94-47.5q49-18 101.5-24T567 81q60 8 116 31t104 60q47 38 83 86.5T927 364q18 45 24.5 92.5T955 552q-5 67-29 129.5T860 797q-41 53-96.5 91T643 945q-37 11-75 16t-77 4zm213-454q19 0 37-5.5t34-16.5q16-11 28-25.5t19-31.5q8-18 9.5-37t-1.5-37q-4-19-13-35.5T795 292q-14-13-30.5-22T729 257q-18-3-37-1.5t-37 9.5q-17 7-32 19t-25 28q-11 15-16.5 33.5T576 383q0 25 10 48.5t28 41.5q18 18 41.5 28t48.5 10zM448 657q0-19-5.5-37T427 586q-11-16-25.5-28T369 539q-17-7-36-9t-37 2q-19 3-36 12t-30 23q-13 13-22 29.5T195 632q-4 19-2 37.5t9 36.5q8 18 20 32.5t27 24.5q16 11 34 16.5t37 5.5q26 0 49.5-10t41.5-28q18-17 27.5-41t9.5-49zm-64-460q-19 0-37 5.5T313 218q-15 11-27 25.5T266 276q-7 17-9 36t2 37q4 19 13 36t22 30q13 13 30 22t35 13q19 4 38 2t36-9q18-8 32.5-20t25.5-27q10-16 15.5-34.5T512 324q0-25-9.5-48.5T475 234q-18-18-41.5-27.5T384 197zm256 649q19 0 37.5-5.5T711 825q16-11 28-25.5t19-32.5q8-17 9.5-36t-1.5-38q-4-18-13-35t-22-30q-14-13-30.5-22T665 593q-18-4-37-2t-37 9q-17 8-32 20t-25 27q-11 16-16.5 34t-5.5 37q0 26 10 49.5t28 41.5q18 18 41.5 27.5T640 846zM512 580q11 0 21.5-4t18.5-12q8-8 12-18t4-21q1-6 0-12l-2-12q-2-5-5-10.5t-7-9.5q-4-4-9-7.5t-10-6.5q-5-2-11-3.5t-12-1.5q-6 0-11.5 1.5T489 467q-5 3-10 6.5t-9 7.5q-4 4-7 9.5t-5 10.5l-2 12q-1 6 0 12 0 5 1 10.5t3 10.5q2 5 5.5 9.5t7.5 8.5q4 4 8.5 7t9.5 5q5 2 10.5 3t10.5 1zm296-442l78 20q15 3 29 8.5t28 12.5q23 13 40.5 32.5T1011 255q11 24 13 50.5t-5 51.5q-6 25-13 49t-13 50v5q-7-48-22-93-16-46-39.5-87T877 204q-31-36-69-66zm88 678q-6 21-11.5 42.5T874 901q-4 18-11.5 35.5T845 969q-14 19-33 33t-41 22q-22 8-45.5 9t-46.5-5l-92-24h-4q46-7 90-23t84-41q40-24 75-55.5t64-68.5zM129 214q0-6 2.5-12.5T136 188q3-15 7-29.5t9-29.5q6-28 22.5-51.5T214 38q23-17 50.5-24t55.5-4q13 1 26 4t25 6l70 19q-46 7-89 22-44 15-83.5 37T194 150q-36 29-65 64zM29 599q8 46 23 88 15 43 37.5 82t52.5 73q29 35 65 63-24-6-47.5-12T113 880q-23-7-43-20t-35-32q-15-18-24-40.5T1 741q-2-16 0-32t7-31q5-18 9.5-35.5T26 608l2-4q1-2 1-5z"/></svg>