<svg viewBox="0 0 2645 1560.1129" xmlns="http://www.w3.org/2000/svg"><path d="M970 359H54q-11 0-21-4t-17-11q-8-8-12-18t-4-21q0-10 4-20t12-18q7-7 17-11t21-4h916q11 0 21 4t17 11q8 8 12 18t4 20q0 11-4 21t-12 18q-7 7-17 11t-21 4zm0 216H54q-11 0-21-4t-17-12q-8-7-12-17t-4-21q0-11 4-21t12-17q7-8 17-12t21-4h916q11 0 21 4t17 12q8 7 12 17t4 21q0 11-4 21t-12 17q-7 8-17 12t-21 4zm0 215H54q-11 0-21-4t-17-11q-8-8-12-18t-4-20q0-11 4-21t12-18q7-7 17-11t21-4h916q11 0 21 4t17 11q8 8 12 18t4 21q0 10-4 20t-12 18q-7 7-17 11t-21 4z"/></svg>