<svg viewBox="0 0 2645 1560.1129" xmlns="http://www.w3.org/2000/svg"><path d="M989 838L889 466q-13-56-61-91.5T719 339H305q-62 0-110 35.5T134 466v4l-1 2.5q-1 2.5-2 4.5v7q0 16 10.5 26.5T167 521q11 0 20-6t14-16q1-2 1.5-4.5t.5-4.5l2-8q7-30 35-50t65-20h414q36 0 64 20t36 52l98 371q5 24-2 41t-14 26q-14 18-36 28t-48 10H206q-26 0-47.5-10T122 922q-7-9-14-26t-2-39v-3-4q0-15-10.5-25.5T70 814q-13 0-23 8.5T34 843q-1 1-1 3v4q-11 72 41 127.5t132 55.5h611q84 0 136.5-59.5T989 838zM699 296q-15 0-26-10.5T662 259v-26q0-62-44-106.5T512 82q-63 0-107 44t-44 107v26q0 16-10.5 26.5T324 296q-15 0-25.5-10.5T288 259v-26q0-47 17-87 18-41 48.5-71.5T425 27q40-18 87-18 46 0 87 18 41 17 71 47.5t48 71.5q17 40 17 87v26q0 16-10.5 26.5T699 296z"/></svg>