<svg viewBox="0 0 2645 1560.1129" xmlns="http://www.w3.org/2000/svg"><path d="M881 265H143q-10 0-19.5 4T107 280q-7 7-11 16.5T92 316v174q0 10 4 19.5t11 16.5q7 7 16.5 11t19.5 4q11 0 20-4t17-11q7-7 11-16.5t4-19.5V367h634v564H195V797q0-10-4-19.5T180 761q-8-7-17-11t-20-4q-10 0-19.5 4T107 761q-7 7-11 16.5T92 797v185q0 10 4 19.5t11 16.5q7 7 16.5 11t19.5 4h738q10 0 19.5-4t16.5-11q7-7 11-16.5t4-19.5V316q0-10-4-19.5T917 280q-7-7-16.5-11t-19.5-4zm0-205H143q-21 0-36 15t-15 36v52q0 21 15 36t36 15h738q21 0 36-15t15-36v-52q0-21-15-36t-36-15zM718 9h-2q-10 0-17.5 7T691 34v104q0 10 7.5 17.5T716 163h2q10 0 17-7.5t7-17.5V34q0-11-7-18t-17-7zM513 9h-2q-10 0-17.5 7T486 34v104q0 10 7.5 17.5T511 163h2q10 0 17.5-7.5T538 138V34q0-11-7.5-18T513 9zM308 9h-2q-10 0-17 7t-7 18v104q0 10 7 17.5t17 7.5h2q10 0 17.5-7.5T333 138V34q0-11-7.5-18T308 9zm289 567H290q-10 0-19.5-4T254 561q-8-7-11.5-16.5T239 525q0-11 3.5-20t11.5-17q7-7 16.5-11t19.5-4h307q10 0 19.5 4t16.5 11q7 8 11 17t4 20q0 10-4 19.5T633 561q-7 7-16.5 11t-19.5 4zm-96 170H290q-10 0-19.5-4T254 731q-7-7-11-16.5t-4-19.5q0-11 4-20t11-17q7-7 16.5-11t19.5-4h211q10 0 19.5 4t16.5 11q7 8 11 17t4 20q0 10-4 19.5T537 731q-7 7-16.5 11t-19.5 4z"/></svg>