<svg viewBox="0 0 2645 1560.1129" xmlns="http://www.w3.org/2000/svg"><path d="M410 10H115q-20 0-39 8T43 40Q29 54 21 73t-8 39v256q0 10 4 19.5T28 404q7 7 16.5 11t19.5 4q10 0 19.5-4t16.5-11q8-7 11.5-16.5T115 368V112h295v819H116V675q0-10-3.5-19.5T101 639q-7-7-16.5-11T65 624q-10 0-19.5 4T29 639q-7 7-11 16.5T14 675v256q0 20 8 39t22 33q14 14 33 22t39 8h294q20 0 39-8t33-22q15-14 22.5-33t7.5-39V112q0-20-7.5-39T482 40q-14-14-33-22t-39-8zm499 102v132H755V111h154v1zm0-103H755q-20 0-39 8t-33 22q-15 14-22.5 33t-7.5 39v134q0 21 7.5 39.5T683 318q14 14 33 22t39 8h154q20 0 39-8t33-22q14-15 22-33.5t8-39.5V112q0-20-8-39t-22-33q-14-14-33-22t-39-8V9zm0 790v132H755V798h154v1zm0-104H755q-20 0-39 8t-33 22q-15 15-22.5 33.5T653 798v133q0 20 7.5 39t22.5 33q14 14 33 22t39 8h154q20 0 39-8t33-22q14-14 22-33t8-39V798q0-21-8-39.5T981 725q-14-14-33-22t-39-8z"/></svg>