<svg viewBox="0 0 2645 1560.1129" xmlns="http://www.w3.org/2000/svg"><path d="M955 426H106q-5 0-10-2t-9-5q-4-3-7.5-7t-5.5-9q-2-5-3-10t0-10q1-6 3-10.5t5-9.5L362 77q2-3 5.5-5t6.5-4l8-2q4-1 8-1 3 0 7 1l8 2q3 2 6.5 4t5.5 5q6 5 9 12.5t3 15.5q0 8-3 15t-9 13L202 348h753q8 0 15.5 3t12.5 8q6 6 9 13t3 15q0 8-3 15t-9 13q-5 5-12.5 8t-15.5 3zM673 994q-8 0-15.5-3.5T644 982q-5-6-8-13t-3-15q0-8 3-15.5t8-12.5l216-216H106q-7 0-14.5-3T79 698q-6-5-9-12.5T67 671q0-8 3-15.5t9-12.5q5-6 12.5-9t14.5-3h850q5 0 10.5 2t10.5 5q5 3 8.5 7.5T991 656q3 5 3.5 10.5T994 678q-1 6-4 11t-7 9L700 981q-2 3-5.5 5t-6.5 4q-4 2-7.5 2.5T673 994z"/></svg>