<svg viewBox="0 0 2645 1560.1129" xmlns="http://www.w3.org/2000/svg"><path d="M512 1033q-106 0-199-40-93-41-162.5-110.5T40 720Q0 627 0 521t40-199q41-93 110.5-162.5T313 49Q406 9 512 9t199 40q93 41 162.5 110.5T984 322q40 93 40 199t-40 199q-41 93-110.5 162.5T711 993q-93 40-199 40zm0-953q-91 0-171 35-81 35-140.5 94.5T106 350q-35 80-35 171t35 171q35 81 94.5 140.5T341 927q80 35 171 35t171-35q81-35 140.5-94.5T918 692q35-80 35-171t-35-171q-35-81-94.5-140.5T683 115q-80-35-171-35zM377 692q-7 0-13.5-3t-11.5-8q-10-10-10-25t10-25l270-270q10-10 25-10t25 10q10 10 10 25t-10 25L402 681q-5 5-11.5 8t-13.5 3zm270 0q-7 0-13.5-3t-11.5-8L352 411q-10-10-10-25t10-25q10-10 25-10t25 10l270 270q10 10 10 25t-10 25q-5 5-11.5 8t-13.5 3z"/></svg>