<svg viewBox="0 0 2645 1560.1129" xmlns="http://www.w3.org/2000/svg"><path d="M512 80q-91 0-172 34-80 35-140 95t-95 140q-34 81-34 172t34 172q35 80 95 140t140 95q81 34 172 34t172-34q80-35 140-95t95-140q34-81 34-172t-34-172q-35-80-95-140t-140-95q-81-34-172-34zM0 521q0-106 40-199 40-94 109.5-163.5T313 49Q406 9 512 9t199 40q94 40 163.5 109.5T984 322q40 93 40 199t-40 199q-40 94-109.5 163.5T711 993q-93 40-199 40t-199-40q-94-40-163.5-109.5T40 720Q0 627 0 521zm512-230q-51 0-87.5 36.5T388 415q0 51 36.5 87.5T512 539q51 0 87.5-36.5T636 415q0-51-36.5-87.5T512 291zM318 415q0-40 15-76 15-35 41.5-61.5T436 236q36-15 76-15t76 15q35 15 61.5 41.5T691 339q15 36 15 76t-15 76q-15 35-41.5 61.5T588 594q-36 15-76 15t-76-15q-35-15-61.5-41.5T333 491q-15-36-15-76zm405 388q-22-17-49.5-26t-55.5-9H406q-28 0-55.5 9T301 803q-23 17-39.5 40.5T237 894q-4 14-17 21t-27 3q-14-5-21-17.5t-3-26.5q12-39 34.5-71.5T258 746q32-23 70-35.5t78-12.5h212q40 0 78 12.5t70 35.5q32 24 54.5 57t34.5 71q4 14-3 27t-21 17q-14 4-27-3t-17-21q-8-27-24.5-50.5T723 803z"/></svg>