<svg viewBox="0 0 2645 1560.1129" xmlns="http://www.w3.org/2000/svg"><path d="M381 329q-26 0-43.5 17.5T320 389v470q0 25 17.5 42.5T381 919h469q25 0 42.5-17.5T910 859V389q0-25-17.5-42.5T850 329H381zm-175 60q0-72 51-123t124-51h469q72 0 123 51t51 123v470q0 72-51 123t-123 51H381q-73 0-124-51t-51-123V389zM43 52q20-21 47-32t56-11h469q29 0 56 11t47 32q21 20 32 47t11 56v117q0 12-8.5 20.5T732 301q-11 0-19.5-8.5T704 272V155q0-18-7-34.5T678 92q-13-13-29-19.5T615 66H146q-18 0-34.5 6.5T83 92q-13 12-19.5 28.5T57 155v469q0 18 6.5 34T83 687q12 12 28.5 19t34.5 7h117q12 0 20.5 8.5T292 741q0 12-8.5 20.5T263 770H146q-29 0-56-11t-47-32q-21-20-32-47T0 624V155q0-29 11-56t32-47z"/></svg>