<svg viewBox="0 0 2645 1560.1129" xmlns="http://www.w3.org/2000/svg"><path d="M729 35q0-11 7.5-18.5T755 9h243q11 0 18.5 7.5T1024 35v243q0 11-7.5 18.5T998 304q-11 0-19-7.5t-8-18.5V62H755q-11 0-18.5-8T729 35zm44 225q8 7 8 18t-8 19L591 479q-8 8-18.5 8t-18.5-8q-8-8-8-19t8-18l182-182q8-8 19-8t18 8zM26 738q11 0 19 7.5t8 18.5v216h216q11 0 18.5 8t7.5 19q0 11-7.5 18.5T269 1033H26q-11 0-18.5-7.5T0 1007V764q0-11 7.5-18.5T26 738zm444-175q7 8 7 19t-7 18L288 782q-8 8-19 8t-19-8q-7-7-7-18t7-19l183-182q7-8 18-8t19 8zm528 175q11 0 18.5 7.5t7.5 18.5v243q0 11-7.5 18.5T998 1033H755q-11 0-18.5-7.5T729 1007q0-11 7.5-19t18.5-8h216V764q0-11 8-18.5t19-7.5zM554 563q8-8 18.5-8t18.5 8l182 182q8 8 8 19t-8 18q-7 8-18 8t-19-8L554 600q-8-7-8-18t8-19zM0 35q0-11 7.5-18.5T26 9h243q11 0 18.5 7.5T295 35q0 11-7.5 19T269 62H53v216q0 11-8 18.5T26 304q-11 0-18.5-7.5T0 278V35zm250 225q8-8 19-8t19 8l182 182q7 7 7 18t-7 19q-8 8-19 8t-18-8L250 297q-7-8-7-19t7-18z"/></svg>