<svg viewBox="0 0 2645 1560.1129" xmlns="http://www.w3.org/2000/svg"><path d="M484 21q12-12 28-12t28 12l472 472q9 9 11.5 20.5T1021 536q-5 11-14.5 17.5T985 560H880q-17 0-28.5-11.5T840 521q0-16 11.5-27.5T880 482h10L512 104 134 482h10q17 0 28.5 11.5T184 521q0 16-11.5 27.5T144 560H39q-12 0-21.5-6.5T3 536q-5-11-2.5-22.5T12 493L484 21zM144 482q17 0 28.5 11.5T184 521v368q0 13 5 25t14 21q9 9 21 14t25 5h526q13 0 25-5t21-14q9-9 14-21t5-25V521q0-16 11.5-27.5T880 482q16 0 27.5 11.5T919 521v368q0 28-11 54.5T877 991q-21 20-47.5 31t-54.5 11H249q-28 0-54.5-11T147 991q-20-21-31-47.5T105 889V521q0-16 11.5-27.5T144 482zm224 39q0-16 11.5-27.5T407 482h210q16 0 27.5 11.5T656 521v210q0 16-11.5 27.5T617 770H407q-16 0-27.5-11.5T368 731V521zm78 39v132h132V560H446z"/></svg>