<svg viewBox="0 0 2645 1560.1129" xmlns="http://www.w3.org/2000/svg"><path d="M512 101q103 0 135 .5t72 2.5q38 2 60 7.5t35 10.5q18 7 32 16t27 22q13 14 22 27.5t16 31.5q5 13 10.5 35.5T929 314q2 40 2.5 72t.5 135q0 102-.5 134t-2.5 73q-2 37-7.5 59T911 823q-7 17-16 31t-22 27q-14 14-27.5 23T814 920q-13 5-35.5 10.5T719 937q-40 2-72 2.5t-135 .5q-102 0-134-.5t-73-2.5q-37-1-59-6.5T210 920q-17-7-31-16t-27-23q-14-13-23-27t-16-31q-5-14-10.5-36T96 728q-2-41-2.5-73T93 521q0-103 .5-135t2.5-72q1-38 6.5-60t10.5-35q7-18 16-32t23-27q13-13 27-22t31-16q14-5 36-10.5t59-7.5q41-2 73-2.5t134-.5zm0-92q-104 0-137 .5T301 12q-41 2-70.5 8T177 36q-25 10-47 24T86 95q-21 21-35 43t-24 48q-9 24-15.5 53.5T3 310q-2 41-2.5 74T0 521q0 104 .5 137T3 732q2 41 8.5 70.5T27 856q10 26 24 48t35 43q22 21 44 35t47 24q24 10 53.5 16t70.5 8q41 2 74 2.5t137 .5q104 0 137-.5t74-2.5q41-2 70.5-8t53.5-16q26-10 48-24t43-35q21-21 35-43t24-47q9-25 15.5-54.5t8.5-70.5q2-41 2.5-73.5t.5-137.5q0-104-.5-137t-2.5-74q-2-41-8.5-70.5T997 186q-9-25-23-47.5T938 95q-21-21-43-35t-47-24q-25-9-54.5-15.5T724 12q-42-2-74.5-2.5T512 9zm0 249q-54 0-102 21-48 20-83.5 56T270 419q-21 48-21 102 0 55 21 102 21 48 56.5 84t83.5 56q48 21 102 21 55 0 103-21 48-20 83.5-56t56.5-84q20-47 20-102 0-54-20-102-21-48-56.5-84T615 279q-48-21-103-21zm0 434q-70 0-120-50t-50-121q0-71 50-121t120-50q71 0 121 50t50 121q0 71-50 121t-121 50zm335-444q0 25-18 43t-43 18q-26 0-44-18t-18-43q0-26 18-44t44-18q25 0 43 18t18 44z"/></svg>