<svg viewBox="0 0 2645 1560.1129" xmlns="http://www.w3.org/2000/svg"><path d="M334 477q7 10 5.5 22.5T327 520L155 650l357 312 357-312-172-130q-11-8-12.5-20.5T690 477q8-10 20.5-11.5T733 471l203 152q5 5 8.5 11t3.5 13q0 6-2.5 12.5T938 671l-406 354q-9 8-20 8t-20-8L86 671q-5-5-7.5-11.5T76 647q0-7 3.5-13t8.5-11l203-152q10-7 22.5-5.5T334 477zM494 15q8-6 18-6t18 6l406 304q6 5 9 11t3 14q0 7-3 13.5t-9 10.5L530 672q-8 6-18 6t-18-6L88 368q-6-4-9-10.5T76 344q0-8 3-14t9-11L494 15zM157 344l355 266 355-266L512 77 157 344z"/></svg>