<svg viewBox="0 0 2645 1560.1129" xmlns="http://www.w3.org/2000/svg"><path d="M935 1031H84q-17-3-32.5-12.5T24 995q-9-11-15-23.5T0 945V99v-.5V95q3-18 13-34t24-28q15-11 33-17t36-5h812q7 0 13.5 1t13.5 2q17 4 32 14t26 24q10 14 15.5 31t5.5 34v819q-1 10-3.5 20t-6.5 19q-5 9-11 17.5t-14 14.5q-12 9-25.5 15t-28.5 9zm-64-153v-4.5V587q0-17-3-33t-10-31q-9-23-23.5-43T800 445q-20-15-43-24t-47-11q-20-2-39.5 1T633 422q-18 8-33.5 20T572 470l-6 7v-56H411v458h152V618v-8.5-9.5q3-14 10.5-26.5T592 552q12-8 26-12t28-3q14 2 27 8.5t23 16.5q9 11 14.5 24.5T716 614v265l155-1zM155 421v458h152V421H155zm165-180q0-18-6.5-34.5T294 177q-12-13-28.5-20t-34.5-8q-17 2-32.5 9.5T171 179q-12 12-18 28.5t-6 33.5q0 17 6 33.5t18 28.5q12 13 27.5 20.5T231 333q18-1 34.5-8t28.5-20q13-13 19.5-29.5T320 241z"/></svg>