<svg viewBox="0 0 2645 1560.1129" xmlns="http://www.w3.org/2000/svg"><path d="M181 230q48-24 101.5-30.5T388 203q17 4 27 18.5t6 31.5q-3 17-17.5 27t-32.5 6q-38-8-77.5-3T219 306q-36 17-64 45t-45 63q-18 36-23.5 75t2.5 78q8 39 27.5 73t49.5 61q29 26 65.5 41t75.5 18q40 3 78-7t71-32q33-22 57.5-53t37.5-69q13-37 13-76.5T551 445q-5-16 3-32t24-21q17-6 32.5 2t21.5 25q17 50 16.5 103.5T631 627q-18 50-50.5 92.5T503 791q-45 30-96.5 43.5T302 844q-54-3-103-24t-89-56q-41-36-67.5-82T6 583q-10-52-3-105t31-101q24-48 61.5-86t85.5-61zm339 21q45-29 96.5-43T721 198q54 3 103.5 23.5T914 278q40 35 67 81.5t37 98.5q10 53 3 106t-31 101q-23 48-61 86t-86 61q-49 24-102 30.5T636 839q-17-4-27-18.5t-6-31.5q3-17 17.5-27t31.5-6q39 8 78.5 3t74.5-23q36-17 64-45t46-64q17-35 22.5-74t-2.5-78q-8-39-27.5-73.5T858 341q-30-26-66.5-41T716 282q-40-3-78 7.5T567 322q-33 22-57 53t-37 69q-13 37-13 77t13 77q6 17-2 32.5T446 652q-16 5-32-2.5T393 625q-17-51-17-104.5T393 417q17-51 49.5-93.5T520 251z"/></svg>