<svg viewBox="0 0 2645 1560.1129" xmlns="http://www.w3.org/2000/svg"><path d="M512 9q-82 0-155 31-72 31-126 85t-85 127q-32 72-32 155 0 38 15 87.5T169 599q2 3 3 6t2 5l1 1q4 6 10 9t13 3q3 0 6-.5t5-1.5q2-1 3.5-2t2.5-1q6-5 9-10.5t3-13.5v-4q0-2-1-4t-1.5-3.5q-.5-1.5-1.5-2.5v-1.5q0-.5-1-.5-25-55-38-98t-13-73q0-71 27-133t73-108.5Q317 119 379 93q62-27 133-27t133 27q62 26 108 72.5T826 274q27 62 27 133 0 34-17 86-18 53-51 120t-81 148q-48 81-110 171-14 21-35.5 32.5T512 976q-25 0-46.5-11.5T430 932q-18-26-34.5-51T364 831q-2-2-3.5-4.5T358 822h-1q-3-4-8.5-6.5T337 813h-3.5q-1.5 0-2.5 1l-15 8h-1q-3 4-5.5 9.5T307 843q0 2 .5 4.5t1.5 5.5q1 3 3 5.5t4 4.5q17 27 34 52.5l33 49.5q23 34 57.5 51t71.5 17q37 0 71.5-17t58.5-51q43-65 90-141 48-76 87.5-151.5T884 527q26-69 26-120 0-83-31-155-32-73-86-127T667 40Q594 9 512 9zm0 568q71 0 120.5-50T682 407q0-71-49.5-121T512 236q-71 0-120.5 50T342 407q0 70 49.5 120T512 577z"/></svg>