<svg viewBox="0 0 2645 1560.1129" xmlns="http://www.w3.org/2000/svg"><path d="M42 104q21-21 47.5-31.5T144 62h368q29 0 55.5 10.5T614 104q20 20 31 46.5t11 55.5v105q0 16-11.5 27.5T617 350q-16 0-27.5-11.5T578 311V206q0-13-5-25t-15-21q-9-10-21-15t-25-5H144q-13 0-25 5t-21 15q-9 9-14 21t-5 25v630q0 13 5 25t14 21q9 10 21 15t25 5h368q13 0 25-5t21-15q10-9 15-21t5-25V731q0-16 11.5-27.5T617 692q16 0 27.5 11.5T656 731v105q0 29-11 55.5T614 938q-20 21-46.5 31.5T512 980H144q-28 0-54.5-10.5T42 938q-20-20-31-46.5T0 836V206q0-29 11-55.5T42 104zm757 232q12-12 28-12t28 12l157 157q12 12 12 28t-12 28L855 706q-12 12-28 12t-28-12q-11-11-11-27.5t11-27.5l91-91H249q-16 0-27.5-11.5T210 521q0-16 11.5-27.5T249 482h641l-91-91q-11-11-11-27.5t11-27.5z"/></svg>