<svg viewBox="0 0 2645 1560.1129" xmlns="http://www.w3.org/2000/svg"><path d="M637 441H381q-12 0-20 8.5t-8 20.5v6h312l.5-2q.5-2 .5-4 0-12-8.5-20.5T637 441zm302-22l2 2-19 19v-21h-57v57h102v385q0 47-33.5 80.5T853 975H171q-45 0-78-30.5T57 870v-2-2.5-4.5q-2-8-8.5-14T34 840H23q-10 1-16 8.5T0 865v5q0 2 1 4v1q5 66 54 111.5t116 45.5h682q71 0 121-50t50-121V419h-85zm-837 0v21l-19-19 2-2H0v170q2 10 10 16.5t18 6.5q12 0 20.5-8t8.5-20V476h102v-57h-57zm57 75V314l-57 51-60 54 57 57 19 19 13 4 52 16-24-21zm-76-73l2-2 17-16v37l-19-19zm618-254H323l64-57 45-41q17-15 37.5-22.5T512 39q22 0 43 7.5T592 69l46 41 63 57zm281 252l-60-54-57-51v180l-24 21 52-16 14-4 19-19 56-56v-1zm-60 21v-37l17 16 2 2-19 19zm0-113l-29-26-28-25v77l28 25 29 25 17 16 2 2-19 19-30 29-22 7-5 2v16l-75 66 65-20 67-20 44-44 58-57-102-92zM712 139l-32-29-69-62q-21-19-46.5-28.5T512 10q-27 0-52.5 9.5T413 48l-69 62-64 57h86l31-28 32-29 22-20q13-11 28.5-17t32.5-6q17 0 32.5 6T573 90l22 20 32 29 31 28h86l-32-28zM183 515l-24-21v-16l-7-2-19-6-2-2-29-28-19-19 2-2 17-16 29-25 28-25v-77l-28 25L0 419l58 57 44 44 67 20 67 21-53-46zm483-200q0 12-8.5 20t-20.5 8H381q-12 0-20-8t-8-20q0-12 8-20t20-8h256q12 0 20.5 8t8.5 20zm152-176H206q-31 0-53 22t-22 53v293l38 33 260 230q17 15 38.5 23t44.5 8q23 0 44.5-8t38.5-23l298-263V214q0-31-22-53t-53-22zm47 355L576 748q-13 12-29.5 18t-34.5 6q-18 0-34.5-6T448 748L159 494V214q0-19 14-33t33-14h612q19 0 33 14t14 33v280zm-47-384H206q-43 0-73.5 30.5T102 214v306l308 271q22 19 48.5 28.5T512 829q27 0 53.5-9.5T614 791l308-271V214q0-43-30.5-73.5T818 110zm47 384L576 748q-13 12-29.5 18t-34.5 6q-18 0-34.5-6T448 748L159 494V214q0-19 14-33t33-14h612q19 0 33 14t14 33v280zM666 315q0 12-8.5 20.5T637 344H381q-12 0-20-8.5t-8-20.5q0-11 8-19.5t20-8.5h256q12 0 20.5 8t8.5 20zm0 155l-.5 2q-.5 2-.5 4-2 9-10 15.5t-18 6.5H381q-10 0-18-6.5T353 476v-3.5-2.5q0-12 8-20.5t20-8.5h256q12 0 20.5 8.5T666 470z"/></svg>