<svg viewBox="0 0 2645 1560.1129" xmlns="http://www.w3.org/2000/svg"><path d="M193 375q0-67 26-125 25-58 68.5-101.5T389 80q58-25 124-25t124 25q59 25 102 68.5T808 250q25 59 25 125v137q0 7 1.5 18t5.5 23q3 11 7 21t8 17l54 90q32 54 10.5 112.5T838 872q-79 27-161 40t-164.5 13Q430 925 349 912q-82-13-162-40-30-10-51.5-30T104 794q-10-27-6.5-56.5T117 681l54-90q4-7 8-17t8-22q3-11 4.5-22t1.5-18V375zm320-249q-51 0-97 20-45 19-78.5 53T284 278q-20 45-20 97v137q0 14-2.5 29.5T255 571q-4 15-9.5 29.5T232 627l-54 91q-9 15-10 28t3 24q4 10 13.5 19.5T210 805q74 24 150 37 76 12 153 12t153-12q76-13 150-37 27-9 37-36t-5-51l-55-91q-7-12-12.5-26.5T771 571q-4-14-6.5-29.5T762 512V375q0-52-20-97-19-45-53-79t-79-53q-46-20-97-20zM392 91q15-36 47.5-59T513 9q41 0 74 23t47 59q4 10 2 20t-9 17q-7 8-16.5 10.5T591 138q-10-3-20-5t-20-3q-31-4-60-1.5t-56 9.5q-9 3-19 .5T399 128q-7-7-8.5-17t1.5-20zm15 764q0 22 8 41.5t23 34.5q14 14 33.5 22.5T513 962q44 0 75.5-31.5T620 855h71q0 74-52.5 126T513 1033q-36 0-68.5-14T388 981q-24-24-38.5-56.5T335 855h72z"/></svg>