<svg viewBox="0 0 2645 1560.1129" xmlns="http://www.w3.org/2000/svg"><path d="M830 693q-26-26-59-40.5T703 638q-20 0-39 4.5T628 656q-20 10-40.5 14.5T545 675q-7 0-14.5-.5T515 673q-58-9-102-53t-53-102q-4-29 0-58t17-55q25-49 15-104.5T342 205q-26-27-58.5-41T216 150q-53 0-96.5 28T53 253q-18 38-30 78T5.5 412.5Q0 454 0 496q1 42 7 84 5 26 12 52t17 50q0 3 1.5 5.5T40 693q4 5 10 8.5t14 3.5q11 0 19.5-8.5T92 677q0-3-.5-6t-1.5-6q-9-22-15.5-46T64 571q-13-79-1.5-153.5T104 278q17-34 47.5-52.5T216 207q22 0 44 9t40 27l2 2q27 26 34 63.5T326 380q-16 33-22 70t0 77q6 38 24 72 18 35 44.5 61.5T434 705q34 18 72 24l20 2q10 1 19 1 29 0 56-6.5t52-18.5q12-6 24.5-9t25.5-3q23 0 45.5 9.5T788 731l2 2q45 45 33.5 106.5T755 929q-47 22-100.5 34.5T545 976q-20 0-41-1.5t-42-5.5q-56-9-107.5-31T258 883q-1-1-2.5-2t-2.5-2q-4-2-8-3.5t-8-1.5q-4 0-7.5 1.5T222 878q-1 2-2.5 3t-2.5 3q-4 3-6 8t-2 11q0 6 2 11.5t6 9.5q2 1 3 2t2 1q51 38 109.5 63t121.5 36q23 3 46 5t46 2q62 0 121-13.5T780 980q39-19 65.5-54t34.5-78q7-43-6-83.5T830 693zm-53-245q-12 0-20-8.5t-8-19.5q0-57-39.5-96.5T614 284q-12 0-20.5-8t-8.5-20q0-12 8.5-20.5T614 227q79 0 135.5 56.5T806 420q0 11-8.5 19.5T777 448zm218 0q-11 0-19.5-8.5T967 420q0-74-28-138t-76-112q-48-48-112-76T614 66q-12 0-20.5-8T585 38q0-12 8.5-20.5T614 9q84 0 159 32 75 33 130.5 88.5T992 260q32 75 32 160 0 11-8.5 19.5T995 448z"/></svg>