<svg viewBox="0 0 2645 1560.1129" xmlns="http://www.w3.org/2000/svg"><path d="M287 1031q-2-2-3-4t-1-5q-10-51-12-103t4-103q6-33 14.5-65t16.5-63q12-48 23.5-95.5T352 499q1-3 1-7t-1-8q-8-20-12.5-41t-4.5-42q0-21 4.5-42t12.5-41q6-14 16-26t22-22q13-9 27.5-14t30.5-6q8-1 16-.5t16 2.5q8 3 15 7t13 9q7 6 11.5 12.5T528 295q3 7 5 15t2 16q0 22-3.5 43T521 410q-9 30-18.5 61T483 533q-3 11-4 22.5t0 23.5q2 11 7 22t12 20q8 9 17 16t20 12q11 4 22.5 5.5t23.5.5q20-1 39-6t36-15q18-9 33-22t26-29q26-32 42-69t22-77q8-42 4-84t-20-82q-11-29-29.5-54.5T690 172q-25-19-54-31t-60-16q-50-11-100.5-5.5T379 146q-36 15-66.5 39.5T260 243q-22 33-33 70.5T216 391q-1 37 10.5 72.5T262 528q3 2 4 4.5t2 5.5q1 3 1 5.5v5.5q-4 17-8 33t-9 31q-5 16-9 17t-16-5q-28-14-50.5-35.5T140 540q-22-38-33.5-80T95 374q0-44 11.5-86t33.5-80q17-31 40-58t50-49q28-22 59.5-38.5T355 37q42-15 85-22t86.5-6q43.5 1 86.5 9 43 9 84 25 39 14 74 36.5t63 52.5q28 31 48.5 67t32.5 76q15 54 14 111t-19 111q-16 60-51.5 111T773 696q-43 32-95 46.5T573 753q-34-1-64.5-15T455 701q-4-4-7-8t-7-8q-6 20-11.5 40.5T419 767q-16 68-45 131.5T303 1018q-2 4-5 8t-5 7l-6-2z"/></svg>