<svg viewBox="0 0 2645 1560.1129" xmlns="http://www.w3.org/2000/svg"><path d="M756 860q0 48-34 82t-82 34H372q-48 0-82.5-34T255 860V669h-56v191q0 72 50.5 122.5T372 1033h268q72 0 122.5-50.5T813 860V669h-57v191zM640 9H372q-72 0-122.5 51T199 182v89h56v-89q0-48 34.5-82T372 66h268q48 0 82 34t34 82v89h57v-89q0-71-50.5-122T640 9zm207 205H165q-51 0-92.5 27T11 312q-2 2-3 4.5T7 322q-1 1-1 2.5v3.5q0 12 8 20t20 8q9 0 16-4.5T60 339q14-30 42-49t63-19h682q47 0 80.5 33.5T961 385v170q0 47-33.5 80.5T847 669H165q-35 0-63-19t-41-49l-.5-.5-.5-.5q-3-8-10-12.5T34 583q-12 0-20 8.5T6 612v2.5q0 1.5 1 2.5 0 3 1 5.5t3 5.5q20 43 61.5 70.5T165 726h682q71 0 121-50t50-121V385q0-71-50-121t-121-50zM608 922H404q-12 0-20.5-8t-8.5-20q0-12 8.5-20.5T404 865h204q12 0 20 8.5t8 20.5q0 12-8 20t-20 8zm0-99H404q-12 0-20.5-8t-8.5-20q0-12 8.5-20t20.5-8h204q12 0 20 8t8 20q0 12-8 20t-20 8zm154-376H660q-12 0-20.5-8.5T631 418q0-11 8.5-19.5T660 390h102q12 0 20 8.5t8 19.5q0 12-8 20.5t-20 8.5z"/></svg>