<svg viewBox="0 0 2645 1560.1129" xmlns="http://www.w3.org/2000/svg"><path d="M691 957q-23 0-42.5-8.5T613 922q-17-17-25-38t-8-46V402q0-32 6-63t18-60q11-29 27-54.5t36-46.5q20-22 43.5-39t50.5-29q28-13 56.5-19t58.5-6h37q8 0 14.5 3t11.5 9q6 6 8.5 12.5T950 125v79q0 8-2.5 15t-8.5 13q-5 6-11.5 8.5T913 243h-37q-31 0-57 12t-47 35q-22 23-33 51t-11 61v20q0 12 4 22.5t12 19.5q8 9 18 13t22 4h129q23 0 42.5 9t36.5 26q16 17 24 38.5t8 45.5v238q0 25-8 46t-24 38q-17 18-36.5 26.5T913 957H691zm-580 0q-23 0-42.5-8.5T32 922q-16-17-24-38t-8-46V402q0-32 6-63t17-60q12-29 28-54.5T87 178q20-22 43.5-39t50.5-29q27-13 56-19t59-6h37q7 0 13.5 3t12.5 9q5 6 8 12.5t3 15.5v79q0 8-3 15t-8 13q-6 6-12.5 8.5T333 243h-37q-31 0-57 12t-48 35q-21 23-32 51t-11 61v20q0 12 4 22.5t12 19.5q8 9 18 13t21 4h130q23 0 42.5 9t35.5 26q17 17 25 38.5t8 45.5v238q0 25-8 46t-25 38q-16 18-35.5 26.5T333 957H111z"/></svg>