<svg viewBox="0 0 2645 1560.1129" xmlns="http://www.w3.org/2000/svg"><path d="M512 237q-77 0-144 29t-117.5 79Q200 395 171 462q-29 68-29 144 0 77 29 144 29 68 79.5 118T368 947q67 29 144 29t144-29q67-29 117.5-79T853 750q29-67 29-144 0-76-29-144-29-67-79.5-117T656 266q-67-29-144-29zm28-56q84 5 156 41 73 35 127 92t85 132q31 76 31 160 0 89-34 166-33 78-91 136t-136 91q-78 34-166 34t-166-34q-78-33-136-91t-91-136q-34-77-34-166 0-84 31-160 31-75 85-132t127-92q72-36 156-41V37q0-11 8-19.5T512 9q12 0 20 8.5t8 19.5v144z"/></svg>