<svg viewBox="0 0 2645 1560.1129" xmlns="http://www.w3.org/2000/svg"><path d="M392 82q67 0 125 25t101.5 68.5Q662 219 687 277t25 124q0 67-25 125t-68.5 101.5Q575 671 517 696t-125 25q-66 0-124-25t-101.5-68.5Q123 584 98 526T73 401q0-66 25-124t68.5-101.5Q210 132 268 107t124-25zm0-73q-81 0-152 31-72 31-125 84T31 249Q0 320 0 401q0 82 31 153 31 72 84 125t125 84q71 31 152 31 82 0 153-31 72-31 125-84t84-125q31-71 31-153 0-81-31-152-31-72-84-125T545 40Q474 9 392 9zm385 777q10-11 25.5-11t25.5 11l185 185q11 10 11 25.5t-11 25.5q-10 11-25.5 11t-25.5-11L777 837q-11-10-11-25.5t11-25.5z"/></svg>