<svg viewBox="0 0 2645 1560.1129" xmlns="http://www.w3.org/2000/svg"><path d="M966 382q-27-28-63.5-43T827 324q-39 0-75 15t-64 43q-28 27-43 63.5T630 521q0 39 15 75.5t43 63.5q28 28 64 43t75 15q39 0 75.5-15t63.5-43q28-27 43-63.5t15-75.5q0-39-15-75.5T966 382zm-139 21q24 0 45.5 9t38.5 25q16 17 25 38.5t9 45.5q0 24-9 45.5T911 605q-17 16-38.5 25t-45.5 9q-23 0-45-9t-38-25q-17-17-26-38.5t-9-45.5q0-24 9-45.5t26-38.5q16-16 38-25t45-9zM336 67q-28-28-64-43T197 9q-39 0-75.5 15T58 67q-28 27-43 63.5T0 206q0 39 15 75t43 64q27 28 63.5 43t75.5 15q39 0 75-15t64-43q28-28 43-64t15-75q0-39-15-75.5T336 67zM197 88q23 0 45 9t38 25q17 17 26 38.5t9 45.5q0 23-9 45t-26 38q-16 17-38 26t-45 9q-24 0-45.5-9T113 289q-16-16-25-38t-9-45q0-24 9-45.5t25-38.5q17-16 38.5-25t45.5-9zm139 609q-28-28-64-43t-75-15q-39 0-75.5 15T58 697q-28 28-43 64T0 836q0 39 15 75.5T58 975q27 28 63.5 43t75.5 15q39 0 75-15t64-43q28-27 43-63.5t15-75.5q0-39-15-75t-43-64zm-139 21q23 0 45 9t38 26q17 16 26 38t9 45q0 24-9 45.5T280 920q-16 16-38 25t-45 9q-24 0-45.5-9T113 920q-16-17-25-38.5T79 836q0-23 9-45t25-38q17-17 38.5-26t45.5-9zm107-462q-8 15-3 30.5t20 22.5l346 179q15 7 30.5 2t22.5-19q8-15 3-30.5T703 418L357 239q-15-7-30.5-2T304 256zm416 315q-7-14-22.5-19t-30.5 2L321 733q-15 7-20 22.5t3 30.5q7 14 22.5 19t30.5-2l346-179q15-7 20-22.5t-3-30.5z"/></svg>