<svg viewBox="0 0 2645 1560.1129" xmlns="http://www.w3.org/2000/svg"><path d="M512 32q13 0 24.5 7T554 58l133 269 297 43q13 2 23.5 10.5T1022 402q4 13 .5 26t-12.5 22L794 660l51 296q3 13-2.5 25t-15.5 20q-11 8-24.5 9t-24.5-5L512 865l-266 140q-11 6-24.5 5t-24.5-9q-10-8-15.5-20t-2.5-25l51-296L14 450q-9-9-12.5-22t.5-26q4-13 14.5-21.5T40 370l297-43L470 58q6-12 17.5-19t24.5-7zm0 152L410 390q-5 11-14.5 17.5T375 416l-228 33 165 161q8 8 12 19t2 22l-39 227 204-107q10-5 21.5-5t21.5 5l203 107-39-227q-2-11 2-22t12-19l165-161-228-33q-11-2-20.5-8.5T614 390L512 184z"/></svg>