<svg viewBox="0 0 2645 1560.1129" xmlns="http://www.w3.org/2000/svg"><path d="M1014 576L458 20q-2-3-5-5t-7-3q-3-2-7-2.5t-8-.5h-9L111 70q-10 2-18.5 6T77 87q-7 7-11.5 16T60 121L1 430q-1 4-1 9t1 10q2 5 4 9.5t6 7.5l144 145q7 7 16.5 11t19.5 4q10 0 19.5-4t16.5-11q7-7 11-16.5t4-19.5q0-10-4-19.5T227 539L109 419l48-253 254-49 490 489-302 302-154-153q-7-7-16.5-11t-19.5-4q-10 0-19.5 4T373 755q-7 7-11 16.5t-4 19.5q0 10 4 19t11 16l195 196q3 3 6 5t7 3q3 1 6.5 2t7.5 1q12-1 22.5-5.5T636 1015l371-371q7-7 11.5-15t5.5-18q1-9-1.5-18t-8.5-17zM324 437q43 0 74-31t31-74q0-44-31-74.5T324 227q-44 0-74.5 30.5T219 332q0 43 30.5 74t74.5 31z"/></svg>