<svg viewBox="0 0 2645 1560.1129" xmlns="http://www.w3.org/2000/svg"><path d="M951 61q-13-2-26.5 0T897 69q-9 3-75 31-67 28-168 70.5T427 266q-125 52-251 106L65 418q-32 13-48.5 34.5T0 502q0 21 12.5 45T65 587l188 75q12 37 34 103.5t30 88.5q4 13 16 39t39 34q6 2 11.5 3t11.5 1q17 0 29-6t18-11l120-101 145 134q4 5 24.5 20t49.5 15q38 0 63.5-25.5T876 901q2-8 25-123 22-114 49-247.5T998 287l22-110q10-42-1.5-65T996 79q-9-8-20.5-12.5T951 61zm-34 110q-7 37-28 140-20 103-43.5 218.5T802 744q-20 100-26 129L565 677 421 798l40-155 43-44q43-44 96-97.5T699 401q47-46 53-53 10-9 13-13.5t3-8.5q0-4-2.5-7t-7.5-3q-5 0-10.5 3.5T738 325q-22 14-75 45-52 30-116 66.5T418 510q-65 37-111 63l-178-71 87-36q82-35 190-80 107-45 209.5-88T801 220q83-35 116-49z"/></svg>