<svg viewBox="0 0 2645 1560.1129" xmlns="http://www.w3.org/2000/svg"><path d="M476 997q-98 0-185-37-87-38-151.5-102.5T37 706Q0 619 0 521t37-185q38-87 102.5-151.5T291 82q87-37 185-37t185 37q87 38 151.5 102.5T915 336q37 87 37 185t-37 185q-38 87-102.5 151.5T661 960q-87 37-185 37zm0-886q-85 0-159 33-75 32-130.5 87.5T99 362q-33 74-33 159t33 159q32 75 87.5 130.5T317 898q74 33 159 33t159-33q75-32 130.5-87.5T853 680q33-74 33-159t-33-159q-32-75-87.5-130.5T635 144q-74-33-159-33zM351 680q-7 0-13-2.5t-11-7.5q-9-10-9-24t9-23l251-251q9-9 23-9t24 9q9 10 9 24t-9 23L374 670q-5 5-11 7.5t-12 2.5zm250 0q-6 0-12-2.5t-11-7.5L327 419q-9-9-9-23t9-24q10-9 23.5-9t23.5 9l251 251q9 9 9 23t-9 24q-5 5-11 7.5t-13 2.5zm1168-114v52h-24q-10 0-18-1t-15-3q-7-2-13-5.5t-11-8.5q1 8 1 15v14q0 25-9 45.5t-27 38.5q-15 14-34.5 25t-42.5 18q-23 8-46 12t-46 4q-29 0-52-8.5t-39-24.5q-15-16-23-38.5t-8-52.5q0-13 1-29t4-34q3-17 6-31.5t6-25.5q0-2 1-2.5t3-.5q1 0 2.5.5t2.5 1.5l10 11q3 3 4.5 6.5t1.5 7.5q0 2-.5 7.5T1402 574q-3 19-4.5 31.5T1396 624q0 48 24 71.5t72 23.5q18 0 36.5-2.5t37.5-8.5q19-5 35-12t28-16q13-8 19.5-17t6.5-19q0-10-3-27t-8-41q-6-24-11.5-47t-10.5-45q-1-1-1-3v-4q0-4 1-7.5t3-6.5l21-26 3-1.5q1-.5 2-.5 2 0 3.5 1t2.5 4l19 77q3 10 6.5 18t8.5 14q5 5 11 8.5t13 5.5q7 1 16 2t19 1h19zm-302-104l42-42 28 28q3 3 4.5 6.5t1.5 6.5q0 4-1.5 7t-4.5 6l-29 29-41-41zm530 104v52h-14q-12 0-24-3.5t-23-10.5q-10-7-18-16.5t-13-21.5q-14 26-45 39t-77 13h-22q-4 0-7.5-2t-5.5-5q-3-4-4.5-9t-1.5-10q0-6 1.5-11t4.5-8q2-4 5.5-5.5t7.5-1.5h38q19 0 35-2.5t29-8.5q13-5 19-13t5-19l-4-24q-3-18-8-49v-1.5-3.5q0-4 1.5-8t4.5-8l18-23q1-1 2-1.5t2-.5q2 0 3 1t2 4l11 94q2 12 4.5 21.5t6.5 16.5q4 7 9 12t11 7q6 3 14 4.5t18 1.5h15zm-221-256l41-40 28 28q2 2 3.5 5.5t1.5 6.5q0 4-1.5 7t-3.5 5l-28 29-41-41zm90 0l41-40 28 28q3 3 4 6t1 7q0 3-1 6t-4 5l-28 29-41-41zm622 256v52h-18q-12 0-22.5-2.5T2428 609q-10-5-17.5-12t-14.5-15q-2 10-7 18.5t-12 14.5q-7 6-16 9t-20 3q-12 0-25-3t-27-8q-14-6-27.5-12.5T2236 589q-8 9-16.5 16t-17.5 12q-10 4-20.5 6.5T2159 626q-13 0-24-3t-20-9q-10-6-16.5-14.5T2089 580q-7 8-15 15t-19 13q-10 5-20 7.5t-21 2.5h-24q-4 0-7.5-2t-6.5-5q-2-4-3.5-9t-1.5-10q0-6 1.5-11t3.5-8q3-4 6.5-5.5t7.5-1.5h28q13 0 23-3t18-10q8-6 13.5-13t9.5-16q4-8 9-20t11-27q2-5 4.5-9t6.5-5l14-7q1-1 2.5-1h2.5q1 0 2.5.5t1.5 1.5q1 1 1.5 2t.5 3l-5 16q-8 22-11.5 36t-3.5 21q0 9 2.5 15.5t7.5 11.5q5 6 13 8.5t18 3.5q13 0 23-3t18-8q8-6 14.5-13t10.5-15q5-8 10.5-19.5T2247 490q1-6 4-10t8-6l12-6q1 0 2.5-.5t2.5-.5q2 0 3 .5t2 1.5q1 1 1.5 2.5t-.5 3.5q-5 20-11 38t-12 32q8 5 18.5 10t24.5 9q14 5 26 7.5t21 2.5q5 0 8.5-1t5.5-3q2-2 3-5.5t1-9.5q0-6-1.5-14.5T2361 522q-2-11-5.5-23t-8.5-26q-1-4-1.5-6.5t-.5-4.5q0-4 1-7t4-5l16-19q1-2 2-2.5t3-.5q1 0 2 1l2 2q8 27 13.5 46t8.5 31q4 16 11 27.5t16 17.5q10 7 22.5 10t28.5 3h13zm137-183q-1-2-2.5-3t-3.5-1q-1 0-2.5.5t-3.5 2.5l-17 20q-3 5-5 9t-2 8q0 2 .5 4.5t1.5 3.5l3 12q5 14 8 26.5t5 21.5q2 10 3.5 20.5t1.5 21.5q0 11-7.5 18.5T2583 559q-14 3-31 5t-36 2h-36q-4 0-7.5 1.5t-5.5 5.5q-3 3-4.5 8t-1.5 11q0 5 1.5 10t4.5 9q2 3 5.5 5t7.5 2h27q31 0 56-6t44-17q19-12 28.5-33t9.5-50q-1-33-5.5-65t-14.5-64zm-118 346l41-41 29 29q3 2 4 5.5t1 6.5q0 4-1 7t-4 5l-29 30-41-42z"/></svg>