<svg viewBox="0 0 2645 1560.1129" xmlns="http://www.w3.org/2000/svg"><path d="M863 853q-8 0-15-2t-13-7q-4-3-7.5-6.5T822 830q-3-4-4.5-8.5T815 813q-1-5-.5-10t1.5-9q1-5 3-9.5t5-7.5q9-13 17.5-27t15.5-28q2-5 5-9t6-7q4-3 8-5.5t9-4.5q4-1 9-2t10 0q4 0 9 1.5t9 3.5q4 2 8 5t7 6q3 4 5.5 8.5t3.5 8.5q2 5 2.5 9.5t.5 9.5q-1 5-2.5 9.5T943 765q-9 18-19 35t-22 33q-4 5-8 8.5t-9 6.5q-6 2-11.5 3.5T863 853zm82-236q-10 0-18.5-3.5T911 603q-7-7-10.5-15.5T897 569v-14q0-17-1.5-34t-4.5-33q-2-10 .5-19.5T899 451q6-8 14-13t18-7q10-1 19.5 1t16.5 7q8 6 13.5 14.5T987 471q3 20 4.5 40t1.5 40v17q0 5-1 10t-2 9q-2 5-4.5 8.5T979 603q-3 3-7 6t-8 4q-5 2-9.5 3t-9.5 1zm-75-262q-6 0-12-1.5t-11-4.5q-5-2-9.5-6t-7.5-9q-9-13-19.5-25T789 286q-3-4-5.5-8t-4.5-8q-2-5-3-9.5t-1-9.5q0-5 1-9.5t3-9.5q2-4 5-8l6-8q7-6 16-10t19-3q5 0 9.5 1t8.5 2q5 2 9 5t7 6q13 15 25.5 30.5T907 279q4 6 6 12t3 13q0 6-1 12.5t-5 12.5q-3 6-7.5 11t-9.5 8q-6 3-12.5 5t-12.5 2h2zm-359 678q-53 0-104.5-11.5T307 987q-48-23-89.5-55T142 859q-34-41-58-88t-37-98q-14-51-16-104t8-105q9-52 29.5-100.5T120 272q31-43 70-78.5t85-61.5q46-26 97-41.5T475 71q53-4 105.5 3T682 100l-34 90q-39-15-81-21t-84-2q-43 3-83 15.5T323 216q-37 20-68.5 48.5T199 328q-25 34-41.5 73T133 482q-7 41-5.5 83.5T140 649q10 41 29.5 78.5T216 797q27 33 60.5 59t71.5 44q38 18 79.5 27t83.5 10q76-1 146-29.5T781 826l68 69q-34 33-73 59t-82 43.5q-43 17.5-89 26.5t-94 9zm66-767L717 9l59 198-199 59zm-66 333q-9 0-18-3.5T477 585q-7-7-10.5-15.5T463 551V358q0-9 3.5-18t10.5-16q7-6 16-10t18-4q10 0 19 4t15 10q7 7 10.5 16t3.5 18v193q0 10-3.5 18.5T545 585q-6 7-15 10.5t-19 3.5zm197 197q-4 0-9-1t-9-2q-5-2-9-5t-7-6L477 585q-7-7-10.5-16t-3.5-18q0-10 3.5-18.5T477 517q3-3 7-6t9-5q4-1 8.5-2t9.5-1q5 0 9.5 1t9.5 2q4 2 8 5t7 6l198 197q5 5 8 11t5 13q1 7 .5 14.5T753 766q-3 7-7.5 12.5T735 788q-6 4-13 6t-14 2z"/></svg>