<svg viewBox="0 0 2645 1560.1129" xmlns="http://www.w3.org/2000/svg"><path d="M88 97q48-48 118.5-68T369 9h286q92 0 162.5 20T936 97q48 48 68 118.5t20 162.5v286q0 92-20 162.5T936 945q-48 48-118.5 68T655 1033H369q-92 0-162.5-20T88 945q-48-48-68-118.5T0 664V378q0-92 20-162.5T88 97zm50 50q-32 33-49.5 88.5T71 378v286q0 87 17.5 142.5T138 895q33 32 88.5 49.5T369 962h286q87 0 142.5-17.5T886 895q32-33 49.5-88.5T953 664V378q0-87-17.5-142.5T886 147q-33-32-88.5-49.5T655 80H369q-87 0-142.5 17.5T138 147zm153 192q47-5 94.5-7.5T480 329q79 0 158.5 4T797 345q14 1 23.5 12.5T829 384q-2 15-13.5 24t-26.5 8q-77-8-154.5-12T480 400q-45 0-90.5 2.5T298 410l-64 6q-14 1-25.5-8T195 384q-1-15 8.5-26.5T228 345l63-6zm157-41q-1 2-1.5 6t-1.5 10l-7 41q-2 14-14 23t-27 6q-14-2-23-14t-6-27l6-41 .5-.5q.5-.5.5-1.5 1-9 5-24.5t15-28.5q14-15 33.5-21t42.5-6h82q23 0 42.5 6t33.5 22q11 13 15 28t5 24l.5 1 .5 1 6 41q3 14-6 26t-23 15q-15 2-27-6.5T586 354l-7-40q-1-6-1.5-9.5T576 298q0-1-.5-2l-.5-1q-1-1-6-2t-16-1h-82q-11 0-16 1t-6 2l-.5 1q-.5 1-.5 2zm0-3h.5-.5zm127 0zm-280 54q15-1 26 8.5t12 24.5l21 314q0 10 1 17t2 13q1 5 2.5 8l2.5 5q1 2 10.5 6.5T412 750h200q30 0 39.5-4.5T662 739q1-2 2-5t3-8q1-6 1.5-13t1.5-17l20-314q1-15 12-24.5t26-8.5q15 1 24.5 12t8.5 26l-20 314v1q-1 8-1.5 18t-2.5 20q-2 10-6.5 21T718 782q-16 22-43.5 30.5T612 821H412q-36 0-63-8.5T305 782q-8-10-12-21t-6-21q-2-10-3-20t-1-18v-1l-21-314q-1-15 9-26t24-12z"/></svg>