<svg viewBox="0 0 2645 1560.1129" xmlns="http://www.w3.org/2000/svg"><path d="M758 845l-48-294q-6-40-36-65.5T604 460H415q-37 0-65.5 22T312 538q-1 3-1.5 5.5T309 549q0 1-.5 2.5t-.5 2.5q0 13 8.5 23.5T338 591q1 0 3.5.5t4.5.5q11 0 20.5-6.5T380 569v-.5q0-.5 1-1.5l.5-2.5q.5-2.5.5-5.5 3-11 12-18.5t21-7.5h189q13 0 22.5 8.5T638 562l48 295q3 19-2 37t-17 33q-12 15-29 23t-36 8l-186 1q-19 0-36.5-8T350 928l-8-12q-4-6-7-12-3-9-10-14.5t-17-7.5h-7q-15 0-26 11t-11 26v3l1 1q1 5 3.5 10t4.5 10q19 40 57 65t86 25h2l184-1q73-1 120.5-57.5T758 846v-1zM508 82q52 0 89 37t37 89q0 52-37 89t-89 37q-52 0-89-37t-37-89q0-52 37-89t89-37zm0-73q-41 0-77 16-36 15-63 42t-43 63q-16 37-16 78t16 77q16 36 43 63t63 43q36 16 77 16t77-16q37-16 64-43t42-63q16-36 16-77t-16-78q-15-36-42-63t-64-42Q549 9 508 9z"/></svg>