<svg viewBox="0 0 2645 1560.1129" xmlns="http://www.w3.org/2000/svg"><path d="M461 70q-71 0-121.5 50.5T289 242q0 72 50.5 122.5T461 415q72 0 122.5-50.5T634 242q0-71-50.5-121.5T461 70zM228 242q0-48 18-91 19-42 50.5-73.5T371 27q42-18 90-18 49 0 91 18 43 19 74.5 50.5T676 151q18 43 18 91t-18 91q-18 42-49.5 74T552 457q-42 18-91 18-48 0-90-18-43-18-74.5-50T246 333q-18-43-18-91zm-3 441q-44 25-66 56t-22 61q0 30 22 60.5t66 56.5q45 25 105.5 40T461 972q48 0 91.5-7t80.5-20q12-4 23.5 1.5T672 964q4 12-1.5 23.5T653 1003q-43 14-91.5 22t-100.5 8q-76 0-144.5-17T195 970q-51-30-85-73t-34-97q0-54 34-97.5t85-72.5q53-30 121.5-46.5T461 567q52 0 100 7 48 8 91 22.5t78 35.5q36 20 61 46 9 9 9 21.5t-9 21.5q-9 9-21.5 9t-21.5-9q-20-20-49-37-30-17-66.5-29.5T552 635q-43-8-91-8-70 0-130.5 15.5T225 683zm712 93q9 8 10.5 20.5T941 819L840 946q-4 5-10 8t-12 3q-7 0-13-2t-10-7l-51-51q-9-9-9-21.5t9-21.5q9-9 21.5-9t21.5 9l27 27 80-100q8-10 20.5-11.5T937 776z"/></svg>