<svg viewBox="0 0 2645 1560.1129" xmlns="http://www.w3.org/2000/svg"><path d="M513 9Q407 9 314 49T151.5 158.5Q82 228 41 321 1 414 1 520q0 68 17.5 133T69 776L0 1033l268-63q56 30 118 46t126 16h1q105 0 198-40 93-41 162.5-110T984 719q40-93 40-198 0-52-10-101t-29-95q-19-46-47-88-27-42-64-78-36-36-78-64-41-28-87-47t-96-29Q564 9 513 9zm0 102q41 0 80 8 40 8 76.5 23.5T740 180q33 22 62 51t51 63q23 33 38 70t23 76q8 40 8 81 0 84-33 159-32 74-87.5 129.5T672 897q-75 32-160 32-51 0-100.5-12.5T317 880l-34-19-139 33 24-92 11-41-21-36q-27-47-40.5-99T104 520q0-84 32-159 32-74 87.5-129.5T354 144q74-33 159-33zM332 284q-7 0-16.5 3.5T298 300q-9 10-27 35t-18 72q0 47 23.5 86t28.5 46q2 3 18 26 17 24 45 54.5t67 61.5q40 32 88 51 81 32 108.5 32.5t45.5-.5q17-2 47.5-20.5T763 703q8-22 9-39.5t-2-21.5q-2-4-8.5-7t-15.5-8q-10-5-44.5-21.5T659 586q-9-3-16-3t-13 9q-7 10-21 27t-20 23q-5 7-11.5 7.5T562 645q-10-4-38.5-17T459 582q-29-25-47.5-52T388 494q-6-10-2.5-16t7.5-11q5-4 10-10l10-12q4-6 6.5-10.5T425 424q4-7 3-12.5t-4-10.5q-2-4-16.5-39.5T385 307q-7-16-14.5-19t-14.5-4h-24z"/></svg>