<svg viewBox="0 0 2645 1560.1129" xmlns="http://www.w3.org/2000/svg"><path d="M910 179q-38-37-85-56t-95-19q-48 0-95.5 19T550 179l-38 38-39-39q-37-37-83.5-55.5T294 104q-49 0-95.5 18.5T115 178l-2 2q-37 37-55 84-19 47-19 95.5T58 455q18 46 55 83l5 5 7 7q5 3 10.5 4.5T147 556q8 0 15.5-2.5T175 545q6-5 8.5-12.5T186 517q0-6-1-12t-5-10l-6.5-6.5-4.5-4.5h-1q-24-25-37.5-57.5T117 360q0-35 14-67.5t39-58.5q25-25 57-38t67-13q34 0 66.5 13t56.5 38l95 95 94-94q24-25 56.5-38.5T730 183q35 0 67 13.5t57 38.5q52 51 52 124.5T854 484l-37 38-56 55-249 249-54-53-4.5-4.5-5.5-5.5q-5-4-10.5-5.5T426 756q-6 0-11.5 1.5T404 763q-1 0-2 1l-1 1-4.5 4.5Q393 773 393 774q-3 5-4.5 10.5T387 796q0 8 3 15t8 12l114 115 19-20 379-379q37-37 56-84t19-96q0-49-19-96t-56-84z"/></svg>