<svg viewBox="0 0 2645 1560.1129" xmlns="http://www.w3.org/2000/svg"><path d="M917 446L183 20q-10-5-20.5-8T140 9q-11 0-21.5 3T98 20q-9 6-17 14T67 51q-5 10-8 21t-3 22v233q0 17 6.5 32.5T81 387q12 12 27.5 18.5T141 412q16 0 31.5-6.5T200 387q12-12 18.5-27.5T225 327v-84l484 272-484 284v-85q0-17-6.5-32.5T200 655q-12-12-27.5-18.5T141 630q-17 0-32.5 6.5T81 655q-12 11-18.5 26.5T56 714v235q0 16 6.5 31.5T81 1008q12 12 27.5 18.5t32.5 6.5q11 0 21.5-3t20.5-9l737-421q11-6 20-14t15-18q7-10 10-22t3-24q0-12-4-23.5T954 477q-7-10-16.5-18T917 446z"/></svg>